<svg width="146" height="50" viewBox="0 0 146 50" fill="none" xmlns="http://www.w3.org/2000/svg">
<path d="M46.9541 48.8578C46.6504 48.5591 46.4995 48.1326 46.4995 47.5774C46.4995 47.0222 46.6504 46.6153 46.952 46.3207C47.2537 46.0261 47.6857 45.8778 48.249 45.8778C48.7077 45.8778 49.0802 45.9746 49.3685 46.1683C49.6558 46.3619 49.8272 46.6318 49.8805 46.9769H49.4537C49.4003 46.7039 49.269 46.4907 49.0607 46.3372C48.8524 46.1837 48.5897 46.1065 48.2737 46.1065C47.8632 46.1065 47.5472 46.2332 47.3276 46.4876C47.108 46.741 46.9982 47.1046 46.9982 47.5774C46.9982 48.0502 47.109 48.4303 47.3297 48.6889C47.5503 48.9474 47.8684 49.0772 48.2829 49.0772C48.5989 49.0772 48.8596 49.001 49.0648 48.8485C49.27 48.6961 49.3993 48.4818 49.4537 48.2058H49.8805C49.8272 48.5519 49.6558 48.8218 49.3685 49.0144C49.0812 49.208 48.7108 49.3049 48.2593 49.3049C47.6939 49.3049 47.2588 49.1555 46.9551 48.8578H46.9541Z" fill="white"></path>
<path d="M51.5254 45.9253H52.0179V47.3581H54.1471V45.9253H54.6406V49.2566H54.1471V47.5817H52.0179V49.2566H51.5254V45.9253Z" fill="white"></path>
<path d="M57.1905 49.1C56.9216 48.964 56.7164 48.7662 56.5738 48.5077C56.4311 48.2491 56.3604 47.9391 56.3604 47.5775C56.3604 47.2159 56.4311 46.9162 56.5738 46.6618C56.7154 46.4063 56.9216 46.2116 57.1905 46.0787C57.4593 45.9459 57.7805 45.8789 58.1529 45.8789C58.5254 45.8789 58.8455 45.9459 59.1134 46.0787C59.3801 46.2116 59.5854 46.4063 59.727 46.6618C59.8696 46.9172 59.9404 47.2221 59.9404 47.5775C59.9404 47.9329 59.8696 48.2491 59.727 48.5077C59.5854 48.7662 59.3801 48.964 59.1134 49.1C58.8466 49.237 58.5264 49.3049 58.1529 49.3049C57.7794 49.3049 57.4593 49.237 57.1905 49.1ZM59.1062 48.6859C59.3309 48.4253 59.4427 48.0565 59.4427 47.5775C59.4427 47.0985 59.3309 46.7452 59.1082 46.4897C58.8856 46.2343 58.5665 46.1066 58.1529 46.1066C57.7394 46.1066 57.4193 46.2332 57.1956 46.4877C56.9709 46.7411 56.859 47.1047 56.859 47.5775C56.859 48.0503 56.9709 48.4263 57.1956 48.6859C57.4203 48.9465 57.7394 49.0763 58.1529 49.0763C58.5665 49.0763 58.8815 48.9465 59.1062 48.6859Z" fill="white"></path>
<path d="M62.0264 48.8578C61.7227 48.5591 61.5719 48.1326 61.5719 47.5774C61.5719 47.0222 61.7227 46.6153 62.0244 46.3207C62.326 46.0261 62.758 45.8778 63.3214 45.8778C63.78 45.8778 64.1525 45.9746 64.4408 46.1683C64.7292 46.3619 64.8995 46.6318 64.9529 46.9769H64.526C64.4726 46.7039 64.3413 46.4907 64.133 46.3372C63.9247 46.1837 63.662 46.1065 63.346 46.1065C62.9355 46.1065 62.6195 46.2332 62.3999 46.4876C62.1803 46.741 62.0705 47.1046 62.0705 47.5774C62.0705 48.0502 62.1814 48.4303 62.402 48.6889C62.6226 48.9474 62.9407 49.0772 63.3552 49.0772C63.6713 49.0772 63.9319 49.001 64.1371 48.8485C64.3423 48.6961 64.4716 48.4818 64.526 48.2058H64.9529C64.8995 48.5519 64.7281 48.8218 64.4408 49.0144C64.1535 49.208 63.7831 49.3049 63.3316 49.3049C62.7662 49.3049 62.3312 49.1555 62.0275 48.8578H62.0264Z" fill="white"></path>
<path d="M67.3365 49.1C67.0676 48.964 66.8624 48.7662 66.7198 48.5077C66.5772 48.2491 66.5064 47.9391 66.5064 47.5775C66.5064 47.2159 66.5772 46.9162 66.7198 46.6618C66.8614 46.4063 67.0676 46.2116 67.3365 46.0787C67.6053 45.9459 67.9265 45.8789 68.299 45.8789C68.6714 45.8789 68.9916 45.9459 69.2594 46.0787C69.5262 46.2116 69.7314 46.4063 69.873 46.6618C70.0156 46.9172 70.0864 47.2221 70.0864 47.5775C70.0864 47.9329 70.0156 48.2491 69.873 48.5077C69.7314 48.7662 69.5262 48.964 69.2594 49.1C68.9926 49.237 68.6725 49.3049 68.299 49.3049C67.9255 49.3049 67.6053 49.237 67.3365 49.1ZM69.2522 48.6859C69.4769 48.4253 69.5888 48.0565 69.5888 47.5775C69.5888 47.0985 69.4769 46.7452 69.2543 46.4897C69.0316 46.2343 68.7125 46.1066 68.299 46.1066C67.8854 46.1066 67.5653 46.2332 67.3416 46.4877C67.1169 46.7411 67.0051 47.1047 67.0051 47.5775C67.0051 48.0503 67.1169 48.4263 67.3416 48.6859C67.5663 48.9465 67.8854 49.0763 68.299 49.0763C68.7125 49.0763 69.0275 48.9465 69.2522 48.6859Z" fill="white"></path>
<path d="M71.8072 45.9253H72.2997V49.0289H74.3858V49.2576H71.8062V45.9263L71.8072 45.9253Z" fill="white"></path>
<path d="M78.2972 48.3912H76.3866L75.9557 49.2575H75.6242L77.3501 45.8778H77.6056L79.232 49.2575H78.7015L78.2982 48.3912H78.2972ZM78.1884 48.1625L77.3727 46.4114L76.5005 48.1625H78.1884Z" fill="white"></path>
<path d="M81.356 46.154H79.9523V45.9253H83.2471V46.154H81.8485V49.2576H81.356V46.154Z" fill="white"></path>
<path d="M86.6373 48.3912H84.7267L84.2958 49.2575H83.9644L85.6902 45.8778H85.9457L87.5721 49.2575H87.0416L86.6384 48.3912H86.6373ZM86.5286 48.1625L85.7128 46.4114L84.8406 48.1625H86.5286Z" fill="white"></path>
<path d="M91.8068 48.9981C91.8684 49.1073 91.9289 49.1814 91.9894 49.2195V49.2577H91.4723C91.4189 49.1969 91.3686 49.1217 91.3225 49.029C91.2763 48.9373 91.227 48.8199 91.1727 48.6767C91.0844 48.4418 90.9941 48.2605 90.9028 48.1318C90.8115 48.003 90.6986 47.9186 90.5662 47.8774H89.5658V49.2577H89.0733V45.9264H90.4431C90.8987 45.9264 91.2496 46.0067 91.4979 46.1664C91.7463 46.3271 91.8704 46.5722 91.8704 46.9019C91.8704 47.3942 91.5934 47.7002 91.0403 47.8207C91.1603 47.8815 91.265 47.969 91.3533 48.0844C91.4415 48.2008 91.5256 48.3584 91.6046 48.5582C91.6775 48.7426 91.7442 48.8889 91.8058 48.9991L91.8068 48.9981ZM90.4534 47.6538C91.0731 47.6538 91.383 47.4035 91.383 46.9019C91.383 46.4002 91.0731 46.1551 90.4534 46.1551H89.5668V47.6538H90.4534Z" fill="white"></path>
<path d="M93.701 45.9253H94.1935V49.2566H93.701V45.9253Z" fill="white"></path>
<path d="M98.5657 48.3912H96.6551L96.2241 49.2575H95.8927L97.6186 45.8778H97.8741L99.5005 49.2575H98.97L98.5667 48.3912H98.5657ZM98.4569 48.1625L97.6412 46.4114L96.769 48.1625H98.4569Z" fill="white"></path>
<path d="M74.5694 21.6464H80.7362C81.789 21.6464 82.7351 21.7082 83.5734 21.8318C84.4127 21.9554 85.1238 22.1666 85.7077 22.4643C86.2915 22.762 86.7399 23.1658 87.0518 23.6777C87.3648 24.1897 87.5197 24.8335 87.5197 25.6091C87.5197 26.3188 87.4089 26.9091 87.1873 27.3798C86.9646 27.8506 86.6732 28.2348 86.311 28.5314C85.9488 28.8291 85.5383 29.064 85.0776 29.237C84.6169 29.4101 84.1562 29.5636 83.6965 29.6954V29.819C85.4398 30.0663 86.7184 30.5617 87.532 31.3054C88.3468 32.0481 88.7541 33.0391 88.7541 34.2772C88.7541 35.1692 88.5356 35.9161 88.1005 36.5186C87.6644 37.1212 87.098 37.6043 86.3982 37.9669C85.6994 38.3305 84.9063 38.5901 84.0177 38.7467C83.1291 38.9033 82.2415 38.9816 81.3529 38.9816H74.5694L74.4463 38.2389L75.5565 37.7434C75.8356 37.6116 76.0285 37.4251 76.1362 37.1861C76.2429 36.9472 76.2963 36.6371 76.2963 36.257V24.3699C76.2963 23.9909 76.2429 23.6808 76.1362 23.4408C76.0285 23.2018 75.8356 23.0164 75.5565 22.8835L74.4463 22.3881L74.5694 21.6454V21.6464ZM79.7491 37.9917H81.476C83.9428 37.9917 85.1761 36.7947 85.1761 34.4008C85.1761 33.5922 85.0653 32.936 84.8426 32.4323C84.621 31.9286 84.3122 31.5372 83.9181 31.256C83.5231 30.9758 83.0542 30.778 82.5124 30.6616C81.9696 30.5463 81.3775 30.4721 80.7352 30.4381V29.5718C82.0342 29.5059 82.9557 29.1794 83.4985 28.5932C84.0413 28.0071 84.3122 27.2191 84.3122 26.2282C84.3122 25.4525 84.2054 24.8293 83.992 24.3586C83.7776 23.8879 83.4985 23.5253 83.1527 23.2688C82.8079 23.0133 82.4129 22.8434 81.9686 22.761C81.5243 22.6786 81.0718 22.6373 80.6121 22.6373H79.7481V37.9917H79.7491Z" fill="white"></path>
<path d="M103.195 35.5101C103.019 35.8222 101.5 37.9916 99.9283 37.9916H96.4622L96.4642 30.6852H97.6925C99.1793 30.6852 100.986 32.1407 100.986 32.1407H101.768V30.1527H101.766V28.2398H100.984C100.984 28.2398 99.1772 29.6953 97.6904 29.6953H96.4622V22.6372H99.9283C101.501 22.6372 103.02 24.8076 103.195 25.1187H104.119L104.974 22.39L104.85 21.6473H91.2824L91.1593 22.39L92.2695 22.8855C92.5486 23.0173 92.7415 23.2028 92.8493 23.4428C92.956 23.6828 93.0094 23.9918 93.0094 24.3719V30.2289H93.0114L93.0094 36.259C93.0094 36.638 92.956 36.9481 92.8493 37.1881C92.7426 37.4271 92.5486 37.6125 92.2695 37.7454L91.1593 38.2408L91.2824 38.9835H104.85L104.974 38.2408L104.119 35.5122H103.195V35.5101Z" fill="white"></path>
<path d="M106.824 38.2389L107.934 37.7434C108.214 37.6116 108.407 37.4251 108.514 37.1861C108.62 36.9472 108.674 36.6371 108.674 36.257V24.3699C108.674 23.9909 108.62 23.6808 108.514 23.4408C108.407 23.2018 108.213 23.0164 107.934 22.8835L106.824 22.3881L106.947 21.6454H113.854L113.978 22.3881L112.867 22.8835C112.587 23.0154 112.394 23.2008 112.288 23.4408C112.18 23.6798 112.127 23.9898 112.127 24.3699V36.257C112.127 36.6371 112.18 36.9461 112.288 37.1861C112.394 37.4251 112.587 37.6116 112.867 37.7434L113.978 38.2389L113.854 38.9816H106.947L106.824 38.2389Z" fill="white"></path>
<path d="M116.366 21.6465H123.274L123.397 22.3892L122.287 22.8846C122.007 23.0175 121.814 23.2029 121.707 23.4419C121.599 23.6819 121.546 23.992 121.546 24.371V37.6199C121.546 38.2142 121.472 38.788 121.324 39.3411C121.177 39.8932 120.929 40.3969 120.585 40.8512C120.24 41.3055 119.783 41.7051 119.216 42.0523C118.648 42.3984 117.946 42.6549 117.106 42.8197L115.873 43.0679L115.749 42.3253L116.242 42.077C116.637 41.8792 116.953 41.6063 117.192 41.2602C117.43 40.914 117.615 40.5092 117.748 40.0467C117.879 39.5842 117.969 39.0723 118.019 38.5109C118.069 37.9495 118.093 37.3634 118.093 36.7525V24.371C118.093 23.992 118.04 23.6819 117.933 23.4419C117.825 23.2029 117.633 23.0175 117.353 22.8846L116.243 22.3892L116.366 21.6465Z" fill="white"></path>
<path d="M132.007 39.2298C130.708 39.2298 129.594 38.9785 128.664 38.4748C127.734 37.9711 126.97 37.3108 126.37 36.494C125.77 35.6771 125.325 34.7603 125.038 33.7447C124.75 32.7301 124.607 31.7103 124.607 30.6864C124.607 29.4153 124.824 28.2183 125.261 27.0956C125.697 25.9728 126.312 24.9911 127.111 24.1485C127.908 23.3069 128.879 22.6374 130.022 22.143C131.165 21.6485 132.443 21.4003 133.858 21.4003C135.157 21.4003 136.272 21.6516 137.201 22.1553C138.13 22.659 138.894 23.3193 139.496 24.1361C140.096 24.954 140.539 25.8698 140.827 26.8854C141.115 27.9011 141.258 28.9198 141.258 29.9437C141.258 31.2159 141.045 32.4118 140.618 33.5346C140.19 34.6573 139.574 35.64 138.768 36.4816C137.962 37.3232 136.988 37.9927 135.845 38.4872C134.702 38.9826 133.423 39.2298 132.008 39.2298M133.735 38.1153C134.409 38.1153 134.981 37.934 135.45 37.5704C135.919 37.2078 136.3 36.7535 136.597 36.2086C136.893 35.6637 137.107 35.0652 137.238 34.4132C137.37 33.7612 137.435 33.138 137.435 32.5436C137.435 31.2395 137.316 29.9839 137.078 28.7787C136.839 27.5735 136.489 26.5053 136.029 25.571C135.569 24.6388 135.014 23.8961 134.365 23.342C133.715 22.7888 132.971 22.5128 132.132 22.5128C131.458 22.5128 130.887 22.694 130.418 23.0577C129.949 23.4213 129.567 23.8755 129.271 24.4194C128.974 24.9643 128.761 25.5628 128.629 26.2148C128.497 26.8669 128.432 27.4901 128.432 28.0844C128.432 29.3885 128.551 30.6442 128.789 31.8483C129.027 33.0535 129.377 34.1186 129.838 35.0426C130.299 35.9676 130.853 36.7103 131.503 37.2717C132.153 37.8331 132.897 38.1143 133.736 38.1143" fill="white"></path>
<path d="M143.587 26.2694C143.243 26.2694 142.926 26.2096 142.632 26.0881C142.34 25.9665 142.085 25.7976 141.871 25.5813C141.656 25.365 141.485 25.1136 141.361 24.8273C141.237 24.5409 141.175 24.2329 141.175 23.9023C141.175 23.5716 141.237 23.2636 141.361 22.9773C141.485 22.6909 141.656 22.4396 141.871 22.2232C142.086 22.0069 142.34 21.838 142.632 21.7165C142.925 21.5959 143.243 21.5352 143.587 21.5352C143.93 21.5352 144.248 21.5959 144.541 21.7165C144.833 21.838 145.088 22.0069 145.303 22.2232C145.519 22.4396 145.688 22.6909 145.813 22.9773C145.937 23.2636 146 23.5716 146 23.9023C146 24.2329 145.937 24.5399 145.813 24.8273C145.689 25.1136 145.519 25.365 145.303 25.5813C145.088 25.7976 144.833 25.9655 144.541 26.0881C144.248 26.2086 143.93 26.2694 143.587 26.2694ZM143.587 25.9398C143.872 25.9398 144.142 25.8883 144.398 25.7852C144.654 25.6822 144.875 25.5391 145.061 25.3557C145.248 25.1724 145.396 24.956 145.505 24.7068C145.615 24.4575 145.67 24.1897 145.67 23.9033C145.67 23.6169 145.615 23.3491 145.505 23.0998C145.396 22.8506 145.248 22.6342 145.061 22.4509C144.875 22.2675 144.654 22.1244 144.398 22.0214C144.142 21.9183 143.872 21.8668 143.587 21.8668C143.301 21.8668 143.031 21.9183 142.776 22.0214C142.519 22.1244 142.299 22.2675 142.112 22.4509C141.925 22.6342 141.779 22.8506 141.669 23.0998C141.559 23.3501 141.505 23.618 141.505 23.9033C141.505 24.1886 141.559 24.4575 141.669 24.7068C141.779 24.9571 141.926 25.1734 142.112 25.3557C142.299 25.5391 142.519 25.6822 142.776 25.7852C143.031 25.8883 143.302 25.9398 143.587 25.9398ZM142.435 24.9488L142.6 24.8942C142.709 24.8582 142.764 24.784 142.764 24.6738V23.0772C142.764 22.9608 142.709 22.8866 142.6 22.8578L142.435 22.8032V22.6384H143.421C143.75 22.6384 144.025 22.6754 144.243 22.7486C144.463 22.8217 144.572 22.9876 144.572 23.2441C144.572 23.3831 144.534 23.5139 144.457 23.6345C144.38 23.756 144.272 23.8456 144.133 23.9043L144.516 24.6748C144.575 24.785 144.666 24.8582 144.791 24.8953L144.955 24.9499V25.1147H144.133L143.585 24.0145H143.475V23.8497C143.84 23.7982 144.023 23.6149 144.023 23.2997C144.023 22.969 143.822 22.8042 143.419 22.8042H143.31V24.6748C143.31 24.785 143.364 24.8582 143.474 24.8953L143.638 24.9499V25.1147H142.432V24.9499L142.435 24.9488Z" fill="white"></path>
<path d="M143.587 26.2694C143.243 26.2694 142.926 26.2096 142.632 26.0881C142.34 25.9665 142.085 25.7976 141.871 25.5813C141.656 25.365 141.485 25.1136 141.361 24.8273C141.237 24.5409 141.175 24.2329 141.175 23.9023C141.175 23.5716 141.237 23.2636 141.361 22.9773C141.485 22.6909 141.656 22.4396 141.871 22.2232C142.086 22.0069 142.34 21.838 142.632 21.7165C142.925 21.5959 143.243 21.5352 143.587 21.5352C143.93 21.5352 144.248 21.5959 144.541 21.7165C144.833 21.838 145.088 22.0069 145.303 22.2232C145.519 22.4396 145.688 22.6909 145.813 22.9773C145.937 23.2636 146 23.5716 146 23.9023C146 24.2329 145.937 24.5399 145.813 24.8273C145.689 25.1136 145.519 25.365 145.303 25.5813C145.088 25.7976 144.833 25.9655 144.541 26.0881C144.248 26.2086 143.93 26.2694 143.587 26.2694ZM143.587 25.9398C143.872 25.9398 144.142 25.8883 144.398 25.7852C144.654 25.6822 144.875 25.5391 145.061 25.3557C145.248 25.1724 145.396 24.956 145.505 24.7068C145.615 24.4575 145.67 24.1897 145.67 23.9033C145.67 23.6169 145.615 23.3491 145.505 23.0998C145.396 22.8506 145.248 22.6342 145.061 22.4509C144.875 22.2675 144.654 22.1244 144.398 22.0214C144.142 21.9183 143.872 21.8668 143.587 21.8668C143.301 21.8668 143.031 21.9183 142.776 22.0214C142.519 22.1244 142.299 22.2675 142.112 22.4509C141.925 22.6342 141.779 22.8506 141.669 23.0998C141.559 23.3501 141.505 23.618 141.505 23.9033C141.505 24.1886 141.559 24.4575 141.669 24.7068C141.779 24.9571 141.926 25.1734 142.112 25.3557C142.299 25.5391 142.519 25.6822 142.776 25.7852C143.031 25.8883 143.302 25.9398 143.587 25.9398ZM142.435 24.9488L142.6 24.8942C142.709 24.8582 142.764 24.784 142.764 24.6738V23.0772C142.764 22.9608 142.709 22.8866 142.6 22.8578L142.435 22.8032V22.6384H143.421C143.75 22.6384 144.025 22.6754 144.243 22.7486C144.463 22.8217 144.572 22.9876 144.572 23.2441C144.572 23.3831 144.534 23.5139 144.457 23.6345C144.38 23.756 144.272 23.8456 144.133 23.9043L144.516 24.6748C144.575 24.785 144.666 24.8582 144.791 24.8953L144.955 24.9499V25.1147H144.133L143.585 24.0145H143.475V23.8497C143.84 23.7982 144.023 23.6149 144.023 23.2997C144.023 22.969 143.822 22.8042 143.419 22.8042H143.31V24.6748C143.31 24.785 143.364 24.8582 143.474 24.8953L143.638 24.9499V25.1147H142.432V24.9499L142.435 24.9488Z" fill="white"></path>
<path d="M51.1878 30.8099C50.9743 31.4867 50.7024 32.1387 50.3741 32.7661C50.0447 33.3934 49.6466 33.9465 49.1776 34.4245C48.7087 34.9035 48.1618 35.2877 47.5369 35.5761C46.911 35.8656 46.1968 36.0098 45.3903 36.0098C44.4689 36.0098 43.6675 35.811 42.9852 35.4154C42.3028 35.0199 41.7385 34.478 41.2952 33.7941C40.8509 33.1091 40.5174 32.2994 40.2958 31.3662C40.0762 30.4453 39.9664 29.4451 39.9643 28.3707C39.9643 28.3501 39.9613 28.3295 39.9602 28.3079C39.9356 27.7146 39.9828 27.0903 40.1039 26.4331C40.225 25.777 40.4415 25.1692 40.7534 24.612C41.0653 24.0547 41.4778 23.584 41.9929 23.1987C42.507 22.8145 43.1452 22.6054 43.9076 22.5724C44.8557 22.5323 45.7084 22.7723 46.4667 23.2924C47.224 23.8137 47.8817 24.5275 48.4419 25.435C48.7221 25.8893 48.9714 26.3786 49.191 26.9029H49.8487L50.1812 26.189L51.433 23.8755L50.8163 23.38C50.0765 22.8021 49.2618 22.3273 48.3742 21.9564C47.4866 21.5856 46.4503 21.3992 45.2662 21.3992C43.8194 21.3992 42.5409 21.6474 41.4306 22.1419C40.3204 22.6373 39.3907 23.3058 38.6427 24.1474C37.8947 24.99 37.3314 25.9717 36.9527 27.0945C36.5741 28.2172 36.3853 29.4142 36.3853 30.6853C36.3853 31.9564 36.5782 33.0668 36.9651 34.1144C37.3519 35.163 37.8906 36.0623 38.5812 36.8143C39.2717 37.5662 40.1018 38.1554 41.0725 38.5849C42.0422 39.0135 43.1114 39.2287 44.2801 39.2287C46.3189 39.2287 47.9432 38.5108 49.152 37.0738C50.3607 35.6379 51.2442 33.5901 51.8034 30.9325L51.1867 30.8089L51.1878 30.8099Z" fill="white"></path>
<path d="M0.123131 21.6464H6.34024C8.32984 21.6464 9.99519 21.8607 11.3363 22.2892C12.6764 22.7187 13.7497 23.2966 14.5552 24.0228C15.3606 24.749 15.9322 25.5916 16.2698 26.5485C16.6063 27.5065 16.7756 28.5129 16.7756 29.5698C16.7756 30.7255 16.6032 31.8648 16.2574 32.9875C15.9117 34.1103 15.3401 35.1177 14.5428 36.0088C13.7445 36.9008 12.7 37.6188 11.4091 38.1637C10.1183 38.7086 8.53506 38.9816 6.66038 38.9816H0.123131L0 38.2389L1.11023 37.7434C1.38933 37.6116 1.58224 37.4251 1.68998 37.1861C1.79669 36.9472 1.85005 36.6371 1.85005 36.257V24.3699C1.85005 23.9909 1.79669 23.6808 1.68998 23.4408C1.58224 23.2018 1.38933 23.0164 1.11023 22.8835L0 22.3881L0.123131 21.6454V21.6464ZM5.30286 37.9906H6.65936C7.62902 37.9906 8.45605 37.8505 9.1384 37.5693C9.82075 37.2891 10.3964 36.9224 10.8653 36.4682C11.3342 36.0139 11.7047 35.502 11.9756 34.9323C12.2475 34.3627 12.4568 33.7889 12.6056 33.2111C12.7533 32.6332 12.8477 32.0759 12.8898 31.5393C12.9298 31.0026 12.9514 30.5535 12.9514 30.1899C12.9514 27.6476 12.3378 25.7533 11.1136 24.5059C9.88848 23.2595 8.17387 22.6363 5.97085 22.6363H5.30491V37.9906H5.30286Z" fill="white"></path>
<path d="M34.722 26.8844C34.4337 25.8698 33.9904 24.953 33.3901 24.1361C32.7898 23.3183 32.0254 22.658 31.0968 22.1553C30.1671 21.6516 29.0528 21.4003 27.7538 21.4003C26.3398 21.4003 25.0603 21.6485 23.9172 22.143C22.7741 22.6384 21.8034 23.3069 21.0062 24.1495C20.2079 24.9911 19.5922 25.9738 19.1561 27.0966C18.72 28.2194 18.5025 29.4163 18.5025 30.6874C18.5025 31.7113 18.6462 32.7301 18.9345 33.7457C19.2218 34.7604 19.6661 35.6781 20.2664 36.494C20.8666 37.3118 21.6311 37.9721 22.5607 38.4748C23.4903 38.9785 24.6037 39.2309 25.9037 39.2309C27.3177 39.2309 28.5962 38.9826 29.7403 38.4872C30.8834 37.9917 31.8571 37.3232 32.6636 36.4816C33.4691 35.64 34.0858 34.6573 34.5137 33.5356C34.9405 32.4128 35.155 31.2159 35.155 29.9447C35.155 28.9219 35.0103 27.9021 34.723 26.8865M31.1337 34.4153C31.0024 35.0683 30.789 35.6668 30.4924 36.2107C30.1959 36.7556 29.8142 37.2099 29.3452 37.5725C28.8763 37.9361 28.3048 38.1174 27.6306 38.1174C26.7913 38.1174 26.0474 37.8362 25.3979 37.2758C24.7483 36.7144 24.1932 35.9717 23.7325 35.0467C23.2718 34.1227 22.9219 33.0576 22.6838 31.8524C22.4448 30.6473 22.3268 29.3926 22.3268 28.0875C22.3268 27.4932 22.3924 26.87 22.5238 26.2179C22.6551 25.5669 22.8685 24.9674 23.1651 24.4225C23.4616 23.8776 23.8433 23.4244 24.3123 23.0607C24.7812 22.6982 25.3517 22.5158 26.0269 22.5158C26.8652 22.5158 27.6101 22.7929 28.2596 23.3461C28.9081 23.8992 29.4643 24.6419 29.924 25.5752C30.3847 26.5084 30.7336 27.5776 30.9726 28.7828C31.2107 29.988 31.3297 31.2426 31.3297 32.5467C31.3297 33.1411 31.264 33.7643 31.1327 34.4163" fill="white"></path>
<path d="M65.075 35.5103C64.8985 35.8224 63.3799 37.9917 61.8079 37.9917H58.3417L58.3438 30.6854H59.572C61.0588 30.6854 62.8658 32.1409 62.8658 32.1409H63.6477V30.1528H63.6456V28.239H62.8637C62.8637 28.239 61.0568 29.6945 59.57 29.6945H58.3417V22.6364H61.8079C63.3809 22.6364 64.8995 24.8068 65.075 25.1178H65.9985L66.8532 22.3892L66.7301 21.6465H53.162L53.0389 22.3892L54.1491 22.8846C54.4282 23.0175 54.6211 23.2029 54.7289 23.4419C54.8356 23.6819 54.8889 23.9909 54.8889 24.371V30.228H54.891L54.8889 36.2581C54.8889 36.6372 54.8356 36.9472 54.7289 37.1872C54.6221 37.4262 54.4282 37.6116 54.1491 37.7445L53.0389 38.24L53.162 38.9827H66.7301L66.8532 38.24L65.9985 35.5113H65.075V35.5103Z" fill="white"></path>
<path d="M88.5295 3.55814L85.4378 0.898484C84.0454 -0.299495 82.0251 -0.299495 80.6326 0.898484L72.9985 7.46625L65.3654 0.898484C63.973 -0.299495 61.9526 -0.299495 60.5602 0.898484L57.4696 3.55814C56.385 4.49139 56.0043 5.96337 56.4999 7.30864C56.9955 8.65289 58.2381 9.52228 59.6675 9.52228H70.6108L62.3876 16.5979L63.5379 17.9442L72.9985 9.80349L82.4591 17.9442L83.6093 16.5979L75.3872 9.52228H86.3305C87.7589 9.52228 89.0025 8.65289 89.4981 7.30864C89.9937 5.9644 89.613 4.49139 88.5295 3.55814ZM59.6675 7.74746C58.8404 7.74746 58.3459 7.20255 58.1571 6.69266C57.9693 6.18277 57.9918 5.44421 58.6198 4.90445L61.7104 2.24479C62.0726 1.93268 62.518 1.77611 62.9633 1.77611C63.4086 1.77611 63.8529 1.93268 64.2161 2.24479L70.6118 7.74746H59.6685H59.6675ZM87.841 6.69266C87.6532 7.20255 87.1576 7.74746 86.3305 7.74746H75.3872L81.7819 2.24479C82.5083 1.61954 83.5611 1.61954 84.2876 2.24479L87.3792 4.90445C88.0072 5.44421 88.0287 6.18277 87.841 6.69266Z" fill="white"></path>
<path d="M39.5231 6.99761H40.5369C41.0161 6.99761 41.3804 7.10062 41.6297 7.30767C41.879 7.51471 42.0032 7.81755 42.0032 8.21619C42.0032 8.63749 41.879 8.95991 41.6297 9.18446C41.3804 9.40902 41.0233 9.5213 40.5585 9.5213H39.5231V6.99658V6.99761ZM40.6087 9.33176C40.9125 9.33176 41.1464 9.237 41.3075 9.04643C41.4696 8.8569 41.5497 8.57981 41.5497 8.21722C41.5497 7.88039 41.4696 7.62493 41.3106 7.45085C41.1515 7.27676 40.9176 7.18921 40.6077 7.18921H39.9756V9.33176H40.6077H40.6087Z" fill="white"></path>
<path d="M42.466 6.99768H44.6618V7.18927H42.9195V8.07617H44.4607V8.26364H42.9195V9.33183H44.6618V9.52343H42.466V6.99871V6.99768Z" fill="white"></path>
<path d="M45.3185 9.34315C45.1031 9.19894 44.9851 8.99499 44.9666 8.73026H45.3442C45.3606 8.95172 45.4386 9.11344 45.5781 9.21542C45.7167 9.3174 45.9219 9.3689 46.1928 9.3689C46.4277 9.3689 46.6053 9.3277 46.7263 9.24632C46.8474 9.16495 46.908 9.04546 46.908 8.88889C46.908 8.79721 46.8854 8.72099 46.8392 8.65815C46.7941 8.59532 46.713 8.53969 46.5981 8.49025C46.4832 8.44081 46.319 8.39445 46.1055 8.35119C45.77 8.28423 45.5073 8.19565 45.3165 8.08749C45.1256 7.97933 45.0312 7.82276 45.0312 7.6188C45.0312 7.39322 45.1359 7.22738 45.3452 7.12128C45.5545 7.01518 45.8265 6.96265 46.1589 6.96265C46.5088 6.96265 46.7787 7.02342 46.9695 7.14497C47.1604 7.26652 47.2681 7.43442 47.2948 7.64868H46.9213C46.8854 7.47356 46.8023 7.34687 46.673 7.26961C46.5437 7.19235 46.3641 7.15424 46.1343 7.15424C45.9208 7.15424 45.7598 7.19029 45.6489 7.2624C45.5391 7.3345 45.4837 7.4303 45.4837 7.55082C45.4837 7.62293 45.5043 7.68473 45.5453 7.73623C45.5863 7.78774 45.6612 7.83512 45.7721 7.87838C45.8819 7.92165 46.0389 7.96491 46.243 8.00817C46.5037 8.0638 46.714 8.12251 46.872 8.18535C47.0301 8.24818 47.1511 8.33059 47.2353 8.43462C47.3194 8.53763 47.3615 8.67154 47.3615 8.83532C47.3615 9.064 47.2568 9.2422 47.0485 9.3689C46.8402 9.49663 46.557 9.5605 46.201 9.5605C45.8449 9.5605 45.5361 9.48839 45.3206 9.34418L45.3185 9.34315Z" fill="white"></path>
<path d="M47.8335 6.99761H48.8473C49.3265 6.99761 49.6907 7.10062 49.9401 7.30767C50.1894 7.51471 50.3136 7.81755 50.3136 8.21619C50.3136 8.63749 50.1894 8.95991 49.9401 9.18446C49.6907 9.40902 49.3336 9.5213 48.8688 9.5213H47.8335V6.99658V6.99761ZM48.9191 9.33176C49.2228 9.33176 49.4568 9.237 49.6179 9.04643C49.78 8.8569 49.86 8.57981 49.86 8.21722C49.86 7.88039 49.78 7.62493 49.621 7.45085C49.4619 7.27676 49.228 7.18921 48.9181 7.18921H48.286V9.33176H48.9181H48.9191Z" fill="white"></path>
<path d="M50.7763 6.99768H52.9722V7.18927H51.2299V8.07617H52.7711V8.26364H51.2299V9.33183H52.9722V9.52343H50.7763V6.99871V6.99768Z" fill="white"></path>
<path d="M94.1124 7.56936H93.4362V7.40661C93.6209 7.40146 93.7799 7.36334 93.9123 7.29124C94.0457 7.21913 94.1391 7.12024 94.1945 6.99561H94.5577V9.52135H94.1124V7.56936Z" fill="white"></path>
<path d="M98.7257 7.2862C98.9381 7.50354 99.0438 7.81154 99.0438 8.20812C99.0438 8.48521 98.9935 8.72521 98.893 8.92814C98.7924 9.13106 98.6477 9.28763 98.4599 9.39579C98.2722 9.50395 98.0495 9.55854 97.793 9.55854C97.6206 9.55854 97.4616 9.53176 97.3148 9.47717C97.1691 9.42257 97.048 9.34635 96.9516 9.24849C96.8562 9.1496 96.7946 9.03836 96.7679 8.91269H97.1414C97.1937 9.06617 97.2769 9.18463 97.3897 9.266C97.5026 9.34738 97.6391 9.38858 97.7991 9.38858C97.9592 9.38858 98.0957 9.34532 98.2147 9.25879C98.3337 9.17227 98.4251 9.04969 98.4918 8.89105C98.5574 8.73242 98.5903 8.54907 98.5903 8.34305C98.5061 8.45842 98.3922 8.54907 98.2465 8.61499C98.1018 8.68092 97.9418 8.71388 97.7663 8.71388C97.5549 8.71388 97.3692 8.67886 97.2091 8.60778C97.048 8.53671 96.9249 8.43679 96.8367 8.30803C96.7494 8.17927 96.7053 8.03094 96.7053 7.86201C96.7053 7.69308 96.7525 7.53032 96.8469 7.39332C96.9413 7.25632 97.0737 7.15023 97.244 7.074C97.4144 6.99778 97.6093 6.96069 97.8299 6.96069C98.2137 6.96069 98.5112 7.06988 98.7226 7.28723L98.7257 7.2862ZM98.3163 8.34924C98.4353 8.22151 98.4938 8.04948 98.4938 7.83317C98.4938 7.61685 98.4353 7.44277 98.3173 7.3171C98.2003 7.19246 98.0382 7.12963 97.832 7.12963C97.6257 7.12963 97.4626 7.19246 97.3436 7.31916C97.2235 7.44586 97.164 7.61685 97.164 7.83317C97.164 8.04948 97.2245 8.22151 97.3456 8.34924C97.4667 8.47697 97.6288 8.54083 97.833 8.54083C98.0372 8.54083 98.1983 8.47697 98.3163 8.34924Z" fill="white"></path>
<path d="M102.589 8.42644C102.719 8.54284 102.785 8.67469 102.785 8.82199C102.785 8.96929 102.736 9.10114 102.637 9.21135C102.539 9.32157 102.398 9.40707 102.214 9.46784C102.031 9.52759 101.816 9.55849 101.569 9.55849C101.322 9.55849 101.122 9.52965 100.945 9.47196C100.769 9.41428 100.633 9.33187 100.537 9.22475C100.441 9.11762 100.393 8.99195 100.393 8.84774C100.393 8.68396 100.455 8.54181 100.578 8.42026C100.701 8.29871 100.873 8.21012 101.094 8.15553C100.728 7.99896 100.544 7.80942 100.544 7.5859C100.544 7.45817 100.587 7.34795 100.673 7.25421C100.759 7.16047 100.883 7.08837 101.044 7.0379C101.204 6.98742 101.393 6.96167 101.608 6.96167C101.807 6.96167 101.983 6.98639 102.136 7.03584C102.289 7.08528 102.409 7.15326 102.495 7.24185C102.58 7.32941 102.622 7.43138 102.622 7.54675C102.622 7.66933 102.565 7.77955 102.452 7.87638C102.34 7.97423 102.183 8.05046 101.982 8.10505C102.254 8.20394 102.457 8.31107 102.587 8.42747L102.589 8.42644ZM102.129 9.24329C102.26 9.14749 102.325 9.0177 102.325 8.85392C102.325 8.7746 102.299 8.70456 102.246 8.64275C102.194 8.58095 102.109 8.52326 101.993 8.4697C101.877 8.41511 101.717 8.35948 101.513 8.3018C101.448 8.28532 101.398 8.26884 101.362 8.25441C101.199 8.30283 101.073 8.3739 100.986 8.46764C100.899 8.56138 100.855 8.67469 100.855 8.80653C100.855 8.98268 100.922 9.12277 101.056 9.22887C101.19 9.33496 101.37 9.3875 101.595 9.3875C101.819 9.3875 101.998 9.33908 102.128 9.24329H102.129ZM101.163 7.23567C101.058 7.30674 101.007 7.40151 101.007 7.51894C101.007 7.62195 101.062 7.7126 101.172 7.78985C101.282 7.86711 101.465 7.94333 101.722 8.02059C101.864 7.96084 101.973 7.88668 102.051 7.80015C102.129 7.71363 102.168 7.61989 102.168 7.51894C102.168 7.40151 102.115 7.30674 102.008 7.23567C101.901 7.16459 101.76 7.12957 101.582 7.12957C101.405 7.12957 101.268 7.16562 101.164 7.23567H101.163Z" fill="white"></path>
<path d="M106.158 7.2862C106.37 7.50354 106.476 7.81154 106.476 8.20812C106.476 8.48521 106.426 8.72521 106.325 8.92814C106.224 9.13106 106.08 9.28763 105.892 9.39579C105.704 9.50395 105.482 9.55854 105.225 9.55854C105.053 9.55854 104.894 9.53176 104.747 9.47717C104.601 9.42257 104.48 9.34635 104.384 9.24849C104.288 9.1496 104.227 9.03836 104.2 8.91269H104.573C104.626 9.06617 104.709 9.18463 104.822 9.266C104.935 9.34738 105.071 9.38858 105.231 9.38858C105.391 9.38858 105.528 9.34532 105.647 9.25879C105.766 9.17227 105.857 9.04969 105.924 8.89105C105.989 8.73242 106.022 8.54907 106.022 8.34305C105.938 8.45842 105.824 8.54907 105.679 8.61499C105.534 8.68092 105.374 8.71388 105.198 8.71388C104.987 8.71388 104.801 8.67886 104.641 8.60778C104.48 8.53671 104.357 8.43679 104.269 8.30803C104.181 8.17927 104.137 8.03094 104.137 7.86201C104.137 7.69308 104.185 7.53032 104.279 7.39332C104.373 7.25632 104.506 7.15023 104.676 7.074C104.846 6.99778 105.041 6.96069 105.262 6.96069C105.646 6.96069 105.943 7.06988 106.155 7.28723L106.158 7.2862ZM105.748 8.34924C105.867 8.22151 105.926 8.04948 105.926 7.83317C105.926 7.61685 105.867 7.44277 105.749 7.3171C105.632 7.19246 105.47 7.12963 105.264 7.12963C105.058 7.12963 104.895 7.19246 104.776 7.31916C104.656 7.44586 104.596 7.61685 104.596 7.83317C104.596 8.04948 104.657 8.22151 104.778 8.34924C104.899 8.47697 105.061 8.54083 105.265 8.54083C105.469 8.54083 105.63 8.47697 105.748 8.34924Z" fill="white"></path>
</svg>