<svg width="219" height="91" viewBox="0 0 219 91" fill="none" xmlns="http://www.w3.org/2000/svg">
<g clip-path="url(#clip0_2056_1107)">
<path d="M163.629 53.3834C163.535 53.9197 163.366 54.1289 163.122 54.0112" stroke="#F6A21A" stroke-width="0.653968"/>
<path d="M202.595 17.5067C202.428 17.5351 202.336 17.7258 202.321 18.0789" stroke="#F6A21A" stroke-width="0.653968"/>
<path d="M214.419 9.32559C216.994 9.32559 219.082 7.23798 219.082 4.66279C219.082 2.0876 216.994 0 214.419 0C211.844 0 209.756 2.0876 209.756 4.66279C209.756 7.23798 211.844 9.32559 214.419 9.32559Z" fill="#F9B234"/>
<path d="M167.026 22.6338C172.621 22.6338 177.156 18.0985 177.156 12.5039C177.156 6.90924 172.621 2.3739 167.026 2.3739C161.431 2.3739 156.896 6.90924 156.896 12.5039C156.896 18.0985 161.431 22.6338 167.026 22.6338Z" fill="#F39200"/>
<path d="M163.629 53.3834C163.535 53.9197 163.366 54.1289 163.122 54.0112C162.017 49.4923 163.279 45.7614 165.872 41.9913C168.335 38.4075 171.428 34.8162 175.149 31.2172C179.491 27.0187 184.359 22.902 189.752 18.867C196.141 14.0908 202.499 9.57954 208.825 5.3331C208.86 5.30951 208.9 5.29515 208.943 5.29136C208.985 5.28756 209.027 5.29446 209.066 5.31141C209.105 5.32836 209.139 5.35481 209.164 5.38832C209.19 5.42183 209.207 5.46132 209.214 5.50314C209.492 7.2852 210.29 8.00783 211.49 9.19479C211.607 9.31032 211.596 9.41278 211.457 9.50215C206.221 12.833 201.094 16.3437 196.076 20.0343C185.38 27.9048 175.217 35.8505 167.141 46.3304C165.754 48.1321 163.832 51.0684 163.629 53.3834Z" fill="#F9B234"/>
<path d="M189.375 7.04325C192.972 7.32772 197.302 8.1975 199.875 10.6139C199.905 10.6421 199.928 10.6765 199.943 10.7148C199.958 10.753 199.964 10.7941 199.961 10.835C199.959 10.876 199.947 10.9158 199.927 10.9516C199.907 10.9875 199.879 11.0184 199.846 11.0423L194.937 14.5279C194.884 14.5658 194.823 14.5915 194.759 14.6034C194.695 14.6153 194.628 14.6129 194.565 14.5966C193.643 14.3481 192.706 14.1737 191.756 14.0734C187.331 13.6091 182.805 13.6799 178.18 14.2859C178.151 14.2896 178.121 14.2866 178.094 14.2773C178.066 14.2679 178.041 14.2524 178.02 14.232C177.999 14.2115 177.983 14.1866 177.974 14.1592C177.964 14.1317 177.961 14.1024 177.964 14.0734C178.227 11.8216 177.874 9.6722 176.904 7.62528C176.839 7.48576 176.883 7.40729 177.035 7.38985C181.43 6.85577 185.543 6.74024 189.375 7.04325Z" fill="#F39200"/>
<path d="M202.595 17.5067C202.428 17.535 202.336 17.7257 202.321 18.0789C202.299 17.8238 202.242 17.656 202.151 17.5753C202.022 17.4598 201.95 17.4881 201.935 17.6603C201.917 17.8391 201.913 18.0113 201.922 18.177C201.95 18.7743 201.743 18.8735 201.301 18.4745L200.571 17.8206C200.349 17.62 200.347 17.4184 200.565 17.2156C200.966 16.8429 201.416 16.578 201.915 16.4211C202.026 16.3862 202.116 16.4178 202.183 16.5159C202.367 16.7906 202.504 17.1208 202.595 17.5067Z" fill="#F39200"/>
<path d="M202.595 17.5067C202.875 18.3329 203.127 19.607 203.354 21.3292C203.685 23.8557 203.385 26.3484 202.452 28.8073C201.645 30.9392 200.648 32.9295 199.46 34.778C193.309 44.3586 184.804 53.1839 176.054 60.8288C166.672 69.0252 157.002 76.8227 147.044 84.2213C147.029 84.2323 147.011 84.2393 146.993 84.2419C146.974 84.2444 146.955 84.2423 146.938 84.2358C146.921 84.2293 146.906 84.2185 146.894 84.2045C146.882 84.1906 146.874 84.1738 146.871 84.1559C146.428 82.0021 145.271 80.3977 143.398 79.3427C143.371 79.3274 143.348 79.3054 143.332 79.2789C143.316 79.2523 143.307 79.2221 143.305 79.191C143.304 79.1599 143.311 79.129 143.325 79.1012C143.339 79.0734 143.359 79.0496 143.385 79.032C145.295 77.7241 147.19 76.3595 149.071 74.9382C156.832 69.0786 164.318 63.0458 171.529 56.8396C180.07 49.4923 188.153 41.5629 194.941 32.7344C196.469 30.7441 197.933 28.6187 199.332 26.3582C200.941 23.7619 201.937 21.0022 202.321 18.0789C202.336 17.7258 202.428 17.5351 202.595 17.5067Z" fill="#F9B234"/>
<path d="M10.999 40.752C10.877 39.8844 10.7015 39.879 10.4726 40.7357L7.77497 50.7806C7.73573 50.9332 7.63655 51.0095 7.47742 51.0095L0.185672 51.0161C0.157504 51.0166 0.129627 51.0105 0.104207 50.9983C0.0787884 50.986 0.0565131 50.968 0.0391135 50.9455C0.0217139 50.923 0.00965845 50.8968 0.00388597 50.8687C-0.00188651 50.8407 -0.0012197 50.8117 0.00583183 50.7839L6.64688 25.9822C6.6628 25.9205 6.69872 25.8659 6.74901 25.8268C6.79931 25.7878 6.86114 25.7665 6.92482 25.7664L13.4416 25.786C13.5249 25.7871 13.6056 25.8134 13.6729 25.8614C13.7402 25.9094 13.7907 25.9766 13.8176 26.0541L18.2254 38.885C18.2355 38.9135 18.253 38.9389 18.276 38.9586C18.299 38.9784 18.3268 38.9917 18.3566 38.9973C18.3863 39.003 18.4171 39.0007 18.4457 38.9907C18.4743 38.9807 18.4998 38.9635 18.5197 38.9406L29.6698 26.0083C29.805 25.8536 29.9761 25.7762 30.1832 25.7762L36.8177 25.7827C36.8288 25.7829 36.8398 25.7856 36.8498 25.7906C36.8597 25.7956 36.8685 25.8027 36.8754 25.8114C36.8823 25.8202 36.8871 25.8304 36.8896 25.8412C36.892 25.8521 36.8921 25.8634 36.8896 25.8743L30.2944 50.7381C30.2728 50.8179 30.2256 50.8884 30.16 50.9386C30.0944 50.9888 30.0141 51.0161 29.9314 51.0161L22.6658 51.0063C22.522 51.0063 22.4675 50.9376 22.5023 50.8003L25.3275 40.0163C25.4081 39.709 25.3449 39.6763 25.1378 39.9182L17.6401 48.6356C17.6042 48.6777 17.5595 48.7114 17.5093 48.7346C17.459 48.7577 17.4044 48.7697 17.3491 48.7697L13.9354 48.7501C13.889 48.7489 13.8442 48.7339 13.8069 48.7071C13.7695 48.6802 13.7413 48.6428 13.7261 48.5997C13.0394 46.6923 12.38 44.8099 11.7478 42.9526C11.5026 42.2333 11.0971 41.4649 10.999 40.752Z" fill="#3C3C3B"/>
<path d="M138.7 31.9365L144.366 25.8219C144.377 25.8106 144.389 25.8016 144.403 25.7954C144.417 25.7892 144.433 25.786 144.448 25.786L153.365 25.7663C153.387 25.7657 153.409 25.7718 153.428 25.7838C153.447 25.7957 153.461 25.813 153.47 25.8335C153.479 25.8539 153.481 25.8765 153.477 25.8983C153.473 25.9202 153.462 25.9402 153.447 25.956L141.652 37.9073C141.636 37.9232 141.626 37.9436 141.622 37.9658C141.617 37.988 141.62 38.0109 141.629 38.0315L147.335 50.8493C147.343 50.8662 147.346 50.8848 147.345 50.9033C147.343 50.9219 147.337 50.9398 147.327 50.9554C147.317 50.971 147.303 50.9838 147.287 50.9927C147.271 51.0016 147.253 51.0063 147.234 51.0062L137.712 51.0161C137.689 51.0162 137.667 51.0094 137.649 50.9965C137.63 50.9836 137.616 50.9654 137.608 50.9441L135.168 44.4666C135.161 44.4489 135.15 44.4334 135.135 44.4215C135.12 44.4095 135.103 44.4015 135.084 44.3982C135.065 44.3949 135.046 44.3965 135.028 44.4027C135.01 44.409 134.994 44.4197 134.982 44.4339L129.103 50.967C129.092 50.9783 129.08 50.9874 129.066 50.9936C129.051 50.9998 129.036 51.003 129.021 51.003L119.568 51.0291C119.546 51.0291 119.524 51.0225 119.506 51.0103C119.488 50.9981 119.474 50.9807 119.465 50.9605C119.457 50.9402 119.455 50.9179 119.459 50.8963C119.463 50.8748 119.474 50.855 119.489 50.8395L131.794 38.3225C131.809 38.3069 131.819 38.287 131.823 38.2655C131.828 38.244 131.825 38.2217 131.817 38.2015L126.487 25.9298C126.479 25.9129 126.476 25.8943 126.477 25.8758C126.479 25.8572 126.485 25.8394 126.495 25.8237C126.505 25.8081 126.519 25.7953 126.535 25.7864C126.551 25.7775 126.57 25.7729 126.588 25.7729L135.92 25.786C135.943 25.7856 135.965 25.7919 135.983 25.8042C136.002 25.8164 136.016 25.834 136.025 25.8546L138.517 31.9038C138.524 31.9208 138.535 31.9357 138.55 31.9472C138.564 31.9587 138.581 31.9664 138.599 31.9697C138.617 31.9729 138.636 31.9716 138.654 31.9658C138.671 31.96 138.687 31.95 138.7 31.9365Z" fill="#3C3C3B"/>
<path d="M43.5865 46.677L40.8038 50.9441C40.7929 50.9611 40.7779 50.9751 40.7602 50.9848C40.7425 50.9945 40.7227 50.9996 40.7025 50.9997L32.2859 51.0291C32.2631 51.0299 32.2406 51.0243 32.221 51.0128C32.2013 51.0014 32.1852 50.9846 32.1747 50.9645C32.1641 50.9443 32.1594 50.9216 32.1611 50.8989C32.1629 50.8762 32.171 50.8545 32.1845 50.8362L49.809 25.8317C49.8199 25.8158 49.8346 25.8027 49.8517 25.7936C49.8687 25.7845 49.8877 25.7797 49.9071 25.7794L58.1405 25.7827C58.1689 25.7831 58.1963 25.7935 58.2178 25.812C58.2393 25.8305 58.2536 25.856 58.2582 25.8841L62.4927 50.8689C62.4956 50.8864 62.4946 50.9042 62.4898 50.9212C62.485 50.9383 62.4765 50.954 62.465 50.9675C62.4535 50.9809 62.4391 50.9916 62.423 50.9988C62.4069 51.0061 62.3894 51.0097 62.3717 51.0095H53.7949C53.765 51.0097 53.736 50.9988 53.7137 50.9788C53.6913 50.9589 53.6772 50.9314 53.6739 50.9016L53.19 46.726C53.1868 46.6963 53.1726 46.6687 53.1502 46.6488C53.1279 46.6289 53.0989 46.6179 53.069 46.6181L43.6878 46.6214C43.6676 46.6215 43.6478 46.6266 43.6301 46.6363C43.6124 46.646 43.5974 46.66 43.5865 46.677ZM47.7294 40.2975C47.7181 40.3142 47.7116 40.3336 47.7105 40.3537C47.7095 40.3738 47.7138 40.3938 47.7232 40.4116C47.7326 40.4294 47.7467 40.4443 47.7639 40.4547C47.7811 40.4651 47.8008 40.4707 47.8209 40.4708L52.3594 40.4479C52.3752 40.448 52.3908 40.4448 52.4052 40.4384C52.4197 40.432 52.4326 40.4226 52.4431 40.4109C52.4536 40.3991 52.4615 40.3853 52.4662 40.3702C52.471 40.3552 52.4725 40.3393 52.4706 40.3237L51.7872 34.4903C51.7846 34.4677 51.7751 34.4465 51.76 34.4295C51.745 34.4125 51.725 34.4005 51.7029 34.3951C51.6809 34.3898 51.6577 34.3913 51.6365 34.3996C51.6153 34.4078 51.5972 34.4224 51.5845 34.4412L47.7294 40.2975Z" fill="#3C3C3B"/>
<path d="M62.2409 32.1294L63.8693 25.9363C63.8815 25.8911 63.9084 25.8513 63.9456 25.8229C63.9829 25.7945 64.0285 25.7792 64.0753 25.7794L86.9478 25.7761C86.9806 25.776 87.0129 25.7834 87.0423 25.7978C87.0716 25.8122 87.0973 25.8332 87.1172 25.8592C87.1372 25.8851 87.1509 25.9153 87.1572 25.9474C87.1635 25.9795 87.1624 26.0127 87.1538 26.0443L85.4862 32.2406C85.474 32.2858 85.4471 32.3257 85.4099 32.3541C85.3726 32.3825 85.3271 32.3977 85.2802 32.3976L78.2304 32.391C78.1836 32.3908 78.138 32.4061 78.1008 32.4345C78.0635 32.4629 78.0367 32.5028 78.0244 32.548L73.1328 50.8427C73.1205 50.8879 73.0937 50.9278 73.0564 50.9562C73.0192 50.9846 72.9736 50.9999 72.9268 50.9997L64.8208 51.0291C64.7881 51.0292 64.7558 51.0218 64.7264 51.0074C64.697 50.993 64.6714 50.972 64.6514 50.9461C64.6315 50.9201 64.6178 50.8899 64.6115 50.8578C64.6051 50.8257 64.6063 50.7926 64.6148 50.761L69.4673 32.6461C69.4758 32.6145 69.477 32.5813 69.4706 32.5492C69.4643 32.5171 69.4506 32.4869 69.4307 32.461C69.4107 32.435 69.3851 32.414 69.3557 32.3996C69.3263 32.3852 69.294 32.3778 69.2613 32.3779L62.4469 32.3976C62.4142 32.3977 62.3819 32.3903 62.3525 32.3759C62.3231 32.3614 62.2975 32.3405 62.2775 32.3145C62.2576 32.2886 62.2439 32.2583 62.2376 32.2262C62.2312 32.1941 62.2324 32.161 62.2409 32.1294Z" fill="#3C3C3B"/>
<path d="M103.918 43.0508C103.836 43.0891 103.771 43.1581 103.738 43.2433C103.706 43.3286 103.707 43.4236 103.742 43.5085L106.747 50.7937C106.806 50.942 106.755 51.015 106.596 51.0128L97.8659 51.0063C97.8188 51.0064 97.7728 50.9925 97.7338 50.9663C97.6947 50.9401 97.6644 50.9027 97.6468 50.8591L95.2762 45.0028C95.2366 44.9061 95.1691 44.8234 95.0823 44.7652C94.9956 44.707 94.8934 44.6759 94.7889 44.6759H93.154C93.0697 44.6758 92.9876 44.7035 92.9203 44.7549C92.8529 44.8063 92.8041 44.8784 92.7813 44.9603L91.2379 50.7185C91.2147 50.8046 91.1636 50.8805 91.0926 50.9344C91.0216 50.9882 90.9347 51.017 90.8455 51.0161L82.7756 51.0095C82.7575 51.0097 82.7397 51.0057 82.7235 50.9977C82.7073 50.9897 82.6932 50.978 82.6821 50.9635C82.6711 50.949 82.6634 50.932 82.6598 50.9139C82.6561 50.8958 82.6566 50.8771 82.6611 50.8591L89.3349 25.9593C89.3676 25.8372 89.4471 25.7762 89.5735 25.7762C93.796 25.7827 97.8931 25.7816 101.865 25.7729C107.224 25.7631 112.116 28.6242 110.602 34.814C109.662 38.6528 107.435 41.3984 103.918 43.0508ZM102.005 34.6898C102.339 32.705 100.4 32.3518 98.8599 32.342C97.9814 32.3355 97.1509 32.3366 96.3683 32.3453C96.3073 32.3461 96.2481 32.367 96.1998 32.4047C96.1514 32.4425 96.1164 32.4951 96.1002 32.5546L94.6549 37.9531C94.6463 37.9852 94.6452 38.0188 94.6515 38.0514C94.6578 38.0839 94.6715 38.1145 94.6915 38.1408C94.7114 38.1671 94.7371 38.1883 94.7664 38.2028C94.7958 38.2173 94.8282 38.2247 94.8609 38.2245C97.9182 38.2212 101.338 38.6561 102.005 34.6898Z" fill="#3C3C3B"/>
<path d="M109.14 50.7642L115.798 25.9265C115.809 25.8833 115.835 25.8452 115.87 25.818C115.906 25.7908 115.949 25.7761 115.994 25.7761L124.106 25.7827C124.137 25.7826 124.168 25.7897 124.196 25.8034C124.224 25.8172 124.248 25.8371 124.267 25.8618C124.286 25.8864 124.299 25.9151 124.305 25.9456C124.312 25.9762 124.311 26.0077 124.303 26.0377L117.645 50.8591C117.634 50.9023 117.608 50.9404 117.573 50.9676C117.537 50.9948 117.494 51.0096 117.449 51.0095L109.336 51.0193C109.305 51.0193 109.275 51.0122 109.247 50.9985C109.219 50.9848 109.194 50.9648 109.175 50.9402C109.156 50.9155 109.143 50.8868 109.137 50.8563C109.131 50.8258 109.132 50.7943 109.14 50.7642Z" fill="#3C3C3B"/>
<path d="M190.952 67.4045C195.3 67.4045 198.825 63.8793 198.825 59.5307C198.825 55.1821 195.3 51.6569 190.952 51.6569C186.603 51.6569 183.078 55.1821 183.078 59.5307C183.078 63.8793 186.603 67.4045 190.952 67.4045Z" fill="#F39200"/>
<path d="M163.629 53.3835C163.648 53.4685 163.667 53.5492 163.684 53.6254C163.728 53.7998 163.806 53.8184 163.92 53.681C163.946 53.6462 163.983 53.6233 164.031 53.6124C164.149 53.5819 164.248 53.6113 164.329 53.7007C165.809 55.3596 167.767 56.3667 170.204 56.722C170.262 56.7298 170.315 56.7541 170.359 56.7918C170.402 56.8296 170.434 56.8792 170.45 56.9346C170.466 56.99 170.465 57.0489 170.449 57.104C170.432 57.1592 170.399 57.2082 170.355 57.2452L166.784 60.2665C166.695 60.343 166.582 60.3871 166.465 60.3919C166.348 60.3966 166.232 60.3617 166.137 60.2927C165.256 59.6561 164.602 58.8517 164.175 57.8795C163.727 56.8691 163.583 55.2833 163.122 54.0113C163.366 54.129 163.535 53.9197 163.629 53.3835Z" fill="#F39200"/>
<path d="M23.7721 56.5606L23.6584 56.53C23.5434 56.4989 23.4249 56.567 23.3939 56.6821L21.3359 64.3093C21.3048 64.4244 21.373 64.5428 21.488 64.5739L21.6017 64.6045C21.7167 64.6356 21.8352 64.5675 21.8663 64.4524L23.9242 56.8252C23.9553 56.7101 23.8872 56.5917 23.7721 56.5606Z" fill="#3C3C3B"/>
<path d="M27.6181 56.6664L25.8037 57.7352C25.7134 57.7883 25.6834 57.9046 25.7365 57.9948L25.7465 58.0117C25.7996 58.102 25.9159 58.132 26.0061 58.0789L27.8205 57.0101C27.9108 56.957 27.9408 56.8407 27.8877 56.7505L27.8777 56.7336C27.8246 56.6433 27.7083 56.6132 27.6181 56.6664Z" fill="#3C3C3B"/>
<path d="M119.796 56.96C119.633 57.1876 119.635 57.4676 119.799 57.5853C119.964 57.7031 120.229 57.614 120.392 57.3864C120.555 57.1588 120.554 56.8789 120.389 56.7611C120.225 56.6434 119.959 56.7324 119.796 56.96Z" fill="#3C3C3B"/>
<path d="M85.0134 57.4471C85.2206 57.2671 85.278 56.994 85.1418 56.8373C85.0056 56.6805 84.7272 56.6995 84.52 56.8796C84.3128 57.0596 84.2553 57.3327 84.3916 57.4894C84.5278 57.6462 84.8062 57.6272 85.0134 57.4471Z" fill="#3C3C3B"/>
<path d="M8.80518 62.1172C8.71456 62.1095 8.62406 62.1341 8.5494 62.1867C8.47473 62.2393 8.42062 62.3165 8.39645 62.4049L7.84711 64.3864C7.79916 64.5587 7.68798 64.6273 7.51359 64.5924L7.41876 64.5728C7.39585 64.5682 7.37411 64.5589 7.35492 64.5457C7.33572 64.5324 7.31948 64.5154 7.3072 64.4958C7.29492 64.4762 7.28688 64.4543 7.28357 64.4315C7.28026 64.4088 7.28176 64.3856 7.28797 64.3636L9.20083 57.2026C9.21574 57.1483 9.24892 57.1007 9.29478 57.068C9.34063 57.0352 9.39637 57.0192 9.45261 57.0228C10.403 57.0794 11.372 57.1012 12.3595 57.0882C13.8375 57.0653 14.8053 58.1443 14.3181 59.6223C13.4811 62.1564 11.0712 62.3134 8.80518 62.1172ZM12.7159 57.6996C11.9987 57.547 11.0734 57.4827 9.93981 57.5067C9.7894 57.5089 9.69457 57.583 9.65534 57.729L8.66784 61.3815C8.65905 61.415 8.658 61.4502 8.66477 61.4842C8.67154 61.5183 8.68597 61.5505 8.70699 61.5784C8.72801 61.6063 8.75508 61.6293 8.78622 61.6456C8.81736 61.6618 8.85177 61.671 8.88692 61.6725C10.8586 61.7215 13.2554 61.7967 13.7753 59.3705C13.9715 58.4484 13.6184 57.8914 12.7159 57.6996Z" fill="#3C3C3B"/>
<path d="M68.5026 62.4278C67.4868 62.4474 66.4884 62.4637 65.5075 62.4768C65.0856 62.4834 64.7227 62.2447 64.3794 62.6567C63.9325 63.1886 63.503 63.7608 63.091 64.3733C62.9929 64.5194 62.8556 64.5848 62.679 64.5695L62.5646 64.5597C62.4011 64.5444 62.3673 64.4714 62.4632 64.3406L67.7015 57.1731C67.7479 57.1093 67.8119 57.0603 67.8857 57.0324C67.9595 57.0044 68.0399 56.9985 68.1169 57.0155C68.194 57.0325 68.2644 57.0717 68.3196 57.1281C68.3747 57.1846 68.4122 57.2559 68.4274 57.3334L69.7779 64.3014C69.7837 64.3308 69.7829 64.3612 69.7755 64.3903C69.7682 64.4193 69.7545 64.4464 69.7354 64.4696C69.7163 64.4927 69.6923 64.5113 69.6652 64.5241C69.638 64.5369 69.6084 64.5434 69.5784 64.5434H69.4738C69.3902 64.5441 69.3089 64.5155 69.2438 64.4624C69.1788 64.4093 69.1341 64.335 69.1173 64.2523L68.7969 62.6632C68.7642 62.5041 68.6661 62.4256 68.5026 62.4278ZM67.9631 58.0298C67.9572 58.0014 67.9432 57.9753 67.9228 57.9547C67.9024 57.9341 67.8764 57.9198 67.8481 57.9136C67.8198 57.9074 67.7902 57.9095 67.7631 57.9196C67.7359 57.9298 67.7122 57.9477 67.695 57.971L65.0104 61.7476C64.994 61.7703 64.9842 61.797 64.9822 61.8249C64.9801 61.8527 64.9859 61.8806 64.9988 61.9054C65.0117 61.9302 65.0312 61.9509 65.0552 61.9652C65.0792 61.9795 65.1067 61.9868 65.1347 61.9863L68.5451 61.9896C68.5673 61.9896 68.5893 61.9846 68.6093 61.975C68.6294 61.9655 68.6471 61.9516 68.6612 61.9344C68.6752 61.9172 68.6853 61.8972 68.6907 61.8756C68.6961 61.854 68.6966 61.8316 68.6923 61.8098L67.9631 58.0298Z" fill="#3C3C3B"/>
<path d="M174.462 62.9051L179.985 57.9285C179.999 57.916 180.018 57.908 180.037 57.9056L181.95 57.608C181.963 57.6057 181.977 57.6062 181.991 57.6094C182.004 57.6126 182.017 57.6186 182.028 57.6268C182.039 57.6351 182.048 57.6455 182.055 57.6575C182.062 57.6694 182.066 57.6826 182.067 57.6963L182.718 63.0981C182.72 63.1125 182.718 63.127 182.713 63.1407C182.709 63.1544 182.701 63.1669 182.691 63.1774C182.681 63.1879 182.669 63.1962 182.656 63.2017C182.642 63.2072 182.628 63.2098 182.614 63.2092L174.527 63.0817C174.507 63.0812 174.487 63.0746 174.471 63.0629C174.454 63.0511 174.442 63.0346 174.435 63.0156C174.428 62.9966 174.426 62.9759 174.431 62.9562C174.436 62.9365 174.447 62.9187 174.462 62.9051Z" fill="#F39200"/>
<path d="M79.2898 59.4196L78.9105 59.4065C78.7884 59.3999 78.7285 59.3367 78.7307 59.2168V59.0599C78.7314 59.0248 78.7452 58.9912 78.7694 58.9658C78.7936 58.9404 78.8265 58.925 78.8615 58.9225L79.692 58.88C79.825 58.8735 79.9067 58.8059 79.9373 58.6773L80.1465 57.8402C80.159 57.7908 80.1871 57.7466 80.2265 57.7143C80.2659 57.6819 80.3147 57.663 80.3656 57.6604L80.4866 57.6506C80.5002 57.6496 80.5138 57.6516 80.5265 57.6563C80.5392 57.6611 80.5508 57.6685 80.5604 57.6781C80.57 57.6877 80.5775 57.6993 80.5822 57.712C80.587 57.7248 80.5889 57.7384 80.588 57.7519L80.5324 58.7133C80.5301 58.7462 80.5348 58.7793 80.5461 58.8104C80.5575 58.8415 80.5752 58.8699 80.5983 58.8939C80.6213 58.9178 80.6492 58.9368 80.68 58.9496C80.7109 58.9625 80.7441 58.9688 80.7776 58.9683L82.0528 58.9552C82.1684 58.9552 82.2087 59.0097 82.1738 59.1187C82.1368 59.2408 82.0626 59.3247 81.9515 59.3705C81.8294 59.4206 81.6997 59.4468 81.5624 59.449C81.2136 59.4512 80.8604 59.4403 80.5029 59.4163C80.3438 59.4054 80.2435 59.4762 80.2021 59.6288C79.8751 60.8212 79.5656 62.0213 79.2735 63.2289C79.0184 64.2916 80.2413 64.2328 80.843 63.9287C80.8616 63.9189 80.8823 63.9139 80.9033 63.914C80.9242 63.9141 80.9449 63.9195 80.9633 63.9295C80.9817 63.9395 80.9974 63.9539 81.0089 63.9715C81.0205 63.989 81.0275 64.0091 81.0294 64.03L81.0392 64.1183C81.0459 64.1786 81.033 64.2394 81.0023 64.2914C80.9716 64.3433 80.9248 64.3836 80.8692 64.4061C80.2719 64.6524 79.6615 64.6546 79.0381 64.4126C78.9839 64.3921 78.9352 64.3596 78.8955 64.3177C78.8559 64.2758 78.8263 64.2255 78.8092 64.1706C78.4854 63.1603 79.244 60.9564 79.5972 59.861C79.6866 59.5798 79.5841 59.4326 79.2898 59.4196Z" fill="#3C3C3B"/>
<path d="M25.9027 58.8802L25.8838 58.8751C25.7443 58.8375 25.6007 58.92 25.5631 59.0595L24.1559 64.2748C24.1183 64.4143 24.2008 64.5578 24.3403 64.5955L24.3592 64.6006C24.4987 64.6382 24.6423 64.5557 24.6799 64.4162L26.0871 59.2009C26.1248 59.0614 26.0422 58.9178 25.9027 58.8802Z" fill="#3C3C3B"/>
<path d="M19.9645 59.5714C20.1856 59.8127 20.3425 60.1084 20.4263 60.4416C20.5101 60.7748 20.5192 61.1391 20.453 61.5136C20.3868 61.8881 20.2466 62.2654 20.0405 62.6242C19.8343 62.9829 19.5662 63.316 19.2516 63.6043C18.616 64.1867 17.8291 64.5516 17.0641 64.6189C16.299 64.6862 15.6184 64.4503 15.1719 63.9631C14.9509 63.7219 14.794 63.4262 14.7102 63.093C14.6263 62.7597 14.6173 62.3955 14.6835 62.021C14.7497 61.6465 14.8899 61.2691 15.096 60.9104C15.3022 60.5517 15.5702 60.2186 15.8849 59.9303C16.5205 59.3479 17.3073 58.9829 18.0724 58.9156C18.8375 58.8483 19.5181 59.0842 19.9645 59.5714ZM15.735 63.6692C15.9246 63.8517 16.1599 63.9831 16.4275 64.0558C16.695 64.1285 16.9895 64.1412 17.2941 64.093C17.5988 64.0449 17.9076 63.9368 18.203 63.7752C18.4984 63.6135 18.7746 63.4012 19.0158 63.1506C19.257 62.9 19.4584 62.6159 19.6087 62.3145C19.7589 62.0131 19.855 61.7003 19.8914 61.3941C19.9278 61.0878 19.9039 60.794 19.821 60.5295C19.738 60.2649 19.5977 60.0348 19.408 59.8523C19.2184 59.6698 18.9831 59.5384 18.7155 59.4657C18.448 59.393 18.1535 59.3803 17.8489 59.4285C17.5442 59.4766 17.2354 59.5846 16.94 59.7463C16.6446 59.908 16.3684 60.1202 16.1272 60.3709C15.886 60.6215 15.6846 60.9056 15.5343 61.207C15.3841 61.5084 15.288 61.8211 15.2516 62.1274C15.2152 62.4337 15.2391 62.7275 15.3221 62.992C15.405 63.2566 15.5453 63.4867 15.735 63.6692Z" fill="#3C3C3B"/>
<path d="M29.2351 59.5437C30.4319 58.6609 31.985 58.6511 32.8254 59.8805C32.8392 59.9015 32.8575 59.9191 32.879 59.9322C32.9005 59.9453 32.9247 59.9535 32.9499 59.9563C32.9751 59.9591 33.0007 59.9564 33.0249 59.9484C33.0491 59.9404 33.0714 59.9273 33.0902 59.9099C34.0211 59.014 35.0914 58.7393 36.3012 59.086C37.9492 59.5601 36.5105 63.2485 36.1868 64.3275C36.1366 64.491 36.0277 64.576 35.8598 64.5826L35.765 64.5858C35.7415 64.5868 35.7181 64.5822 35.6968 64.5723C35.6755 64.5624 35.6568 64.5476 35.6424 64.529C35.628 64.5104 35.6182 64.4887 35.614 64.4656C35.6097 64.4425 35.611 64.4187 35.6178 64.3962C35.9775 63.1972 36.262 62.0931 36.4713 61.0838C37.0304 58.4287 33.4467 59.3606 32.8679 60.9203C32.4363 62.0866 32.0864 63.2637 31.8183 64.4518C31.8071 64.5044 31.7779 64.5516 31.7357 64.5855C31.6934 64.6194 31.6407 64.638 31.5861 64.6381C31.4531 64.6381 31.355 64.5488 31.2918 64.37C31.2684 64.3 31.2684 64.2242 31.2918 64.1542C31.6581 63.0926 31.9556 62.0146 32.1845 60.9203C32.3807 59.9884 31.609 59.2494 30.7065 59.3999C30.3098 59.4653 29.8204 59.6375 29.2384 59.9165C29.134 59.9677 29.0475 60.0485 28.9899 60.1486C28.6858 60.6653 28.349 61.1492 28.2018 61.7378C27.9773 62.6381 27.7408 63.5286 27.4923 64.4093C27.4509 64.5618 27.3506 64.6283 27.1915 64.6087L27.0574 64.5891C27.0373 64.5865 27.0181 64.5797 27.0008 64.569C26.9836 64.5583 26.9688 64.5441 26.9574 64.5271C26.9459 64.5101 26.9382 64.4909 26.9346 64.4705C26.9309 64.4502 26.9316 64.4294 26.9364 64.4093L28.3817 58.9879C28.3872 58.9651 28.3983 58.9442 28.4139 58.9268C28.4296 58.9094 28.4494 58.8961 28.4716 58.888C28.4938 58.88 28.5178 58.8774 28.5414 58.8806C28.5651 58.8837 28.5877 58.8925 28.6073 58.9061C28.786 59.0325 28.8885 59.2004 28.9147 59.4097C28.9452 59.6342 29.052 59.6789 29.2351 59.5437Z" fill="#3C3C3B"/>
<path d="M39.5482 61.8229C39.3236 61.6834 39.17 61.7389 39.0871 61.9896C38.8691 62.6414 38.9629 63.1766 39.3683 63.5951C40.2545 64.5107 41.788 64.0954 42.6905 63.4087C42.7107 63.3933 42.7344 63.3832 42.7595 63.3794C42.7847 63.3756 42.8104 63.3782 42.8342 63.387C42.858 63.3958 42.8793 63.4106 42.8959 63.4298C42.9125 63.449 42.9239 63.4722 42.9292 63.497L42.9553 63.6246C42.9651 63.6747 42.9598 63.7267 42.94 63.7739C42.9202 63.821 42.8868 63.8612 42.8442 63.8894C41.9264 64.4867 40.9575 64.696 39.9373 64.5172C38.6032 64.2818 38.1683 63.0785 38.456 61.8948C38.7721 60.5891 39.5133 59.6909 40.6795 59.2005C42.6153 58.3863 44.4627 59.3934 43.8546 61.7477C43.8131 61.909 43.7096 61.9831 43.5439 61.97C42.515 61.8872 41.2954 61.8708 39.885 61.921C39.7869 61.9242 39.6365 61.8752 39.5482 61.8229ZM39.486 61.5253C40.6283 61.3967 41.8033 61.3967 43.0109 61.5253C43.0649 61.5312 43.1195 61.5218 43.1686 61.4981C43.2177 61.4744 43.2593 61.4374 43.2889 61.3912C43.7924 60.6098 43.0044 59.6452 42.2687 59.4522C41.8109 59.3302 41.3368 59.3814 40.8463 59.6059C40.031 59.983 39.5002 60.5247 39.2539 61.231C39.2414 61.2667 39.2381 61.3049 39.2443 61.3422C39.2505 61.3794 39.2659 61.4144 39.2892 61.4439C39.3124 61.4733 39.3427 61.4963 39.3771 61.5105C39.4116 61.5248 39.4491 61.5299 39.486 61.5253Z" fill="#3C3C3B"/>
<path d="M46.7613 59.4065C46.7647 59.4402 46.7767 59.4724 46.7962 59.5001C46.8157 59.5278 46.842 59.55 46.8727 59.5645C46.9033 59.579 46.9371 59.5853 46.9709 59.5828C47.0047 59.5803 47.0372 59.5691 47.0654 59.5503C47.6693 59.1471 48.1586 58.9552 48.5336 58.9749C49.2355 59.0119 49.2519 59.1416 48.5826 59.364C48.0813 59.5296 47.6104 59.7051 47.1701 59.8904C47.0676 59.934 46.9837 60.0005 46.9183 60.0899C46.0485 61.2637 45.7608 62.8987 45.3913 64.3014C45.3729 64.3739 45.3331 64.4391 45.2771 64.4887C45.2211 64.5383 45.1515 64.5699 45.0774 64.5794L44.9531 64.5957C44.8223 64.611 44.7744 64.5554 44.8092 64.4289L46.1891 59.1449C46.2632 58.868 46.3984 58.8343 46.5946 59.0435C46.6905 59.1482 46.7461 59.2691 46.7613 59.4065Z" fill="#3C3C3B"/>
<path d="M54.1965 59.5715C54.4179 59.813 54.5751 60.109 54.6591 60.4425C54.7432 60.776 54.7525 61.1406 54.6865 61.5153C54.6205 61.89 54.4805 62.2675 54.2745 62.6264C54.0684 62.9852 53.8004 63.3184 53.4858 63.6067C52.8502 64.1891 52.0631 64.5538 51.2976 64.6206C50.5321 64.6875 49.8509 64.451 49.4039 63.9631C49.1826 63.7216 49.0254 63.4256 48.9413 63.0921C48.8572 62.7585 48.8479 62.394 48.9139 62.0193C48.9799 61.6446 49.1199 61.2671 49.326 60.9082C49.532 60.5494 49.8 60.2162 50.1147 59.9279C50.7502 59.3455 51.5373 58.9808 52.3028 58.9139C53.0683 58.8471 53.7495 59.0836 54.1965 59.5715ZM49.935 63.6587C50.1234 63.8432 50.3579 63.9768 50.6252 64.052C50.8925 64.1272 51.1873 64.1425 51.4927 64.097C51.7982 64.0515 52.1084 63.9461 52.4056 63.7869C52.7028 63.6276 52.9812 63.4175 53.2249 63.1687C53.7169 62.6662 54.0377 62.0363 54.1167 61.4176C54.1956 60.7988 54.0262 60.2419 53.6458 59.8694C53.4574 59.6849 53.2229 59.5512 52.9556 59.476C52.6884 59.4008 52.3936 59.3855 52.0881 59.431C51.7826 59.4765 51.4724 59.5819 51.1752 59.7412C50.878 59.9005 50.5996 60.1105 50.356 60.3593C49.8639 60.8618 49.5431 61.4917 49.4641 62.1105C49.3852 62.7292 49.5546 63.2862 49.935 63.6587Z" fill="#3C3C3B"/>
<path d="M58.9678 62.9543C58.9831 62.8778 58.9832 62.799 58.9681 62.7226C58.9531 62.6461 58.9231 62.5734 58.8799 62.5087C58.8368 62.4439 58.7813 62.3885 58.7167 62.3454C58.6521 62.3023 58.5796 62.2726 58.5035 62.2578C57.8844 62.1379 57.2718 61.9809 56.6658 61.7869C55.2827 61.3422 56.1165 59.6288 57.0386 59.2332C57.9934 58.8255 58.9732 58.8245 59.9782 59.2299C60.1439 59.2975 60.2354 59.4196 60.2528 59.5961L60.2627 59.691C60.2655 59.7167 60.2614 59.7427 60.251 59.7663C60.2405 59.79 60.224 59.8105 60.2031 59.8257C60.1823 59.841 60.1577 59.8505 60.132 59.8532C60.1063 59.856 60.0803 59.8519 60.0567 59.8414C58.8697 59.3411 57.6304 59.0468 56.6724 60.1814C56.6036 60.2627 56.5551 60.3592 56.5308 60.4629C56.5065 60.5666 56.5072 60.6745 56.5327 60.7779C56.5582 60.8813 56.6079 60.9772 56.6776 61.0577C56.7474 61.1381 56.8352 61.2009 56.934 61.2409C57.4615 61.4523 58.0217 61.6082 58.6147 61.7085C59.3144 61.8262 59.7689 62.3559 59.5531 63.0622C58.9841 64.926 56.4304 64.8639 55.0832 64.1151C54.9088 64.017 54.8663 63.8796 54.9557 63.7031L55.0048 63.6115C55.0165 63.5877 55.0333 63.5666 55.0539 63.5498C55.0744 63.5329 55.0984 63.5207 55.1241 63.5139C55.1498 63.5071 55.1767 63.5058 55.2029 63.5103C55.2291 63.5147 55.2541 63.5247 55.2761 63.5396C56.2898 64.2164 58.6474 64.5925 58.9678 62.9543Z" fill="#3C3C3B"/>
<path d="M72.9659 59.5699C72.9629 59.5919 72.9667 59.6143 72.9766 59.6342C72.9865 59.6541 73.0021 59.6706 73.0215 59.6815C73.0408 59.6924 73.063 59.6972 73.0852 59.6954C73.1073 59.6936 73.1284 59.6852 73.1457 59.6713C73.9261 59.0413 74.8351 58.82 75.8728 59.0075C77.0891 59.2266 77.1382 60.3089 76.8766 61.3651C76.6303 62.3569 76.3785 63.3433 76.1213 64.3243C76.0864 64.4529 76.0025 64.5248 75.8695 64.5401L75.7125 64.5564C75.5403 64.5739 75.4782 64.4997 75.5262 64.3341C75.8117 63.327 76.0875 62.2893 76.3534 61.2212C76.6455 60.0397 76.2074 59.4402 75.039 59.4228C74.3 59.4119 73.6569 59.6713 73.1098 60.201C72.3184 60.9661 71.9391 63.1831 71.5729 64.357C71.525 64.5096 71.4203 64.5859 71.259 64.5859H71.174C71.041 64.5859 70.992 64.5215 71.0269 64.3929L72.4329 59.1187C72.4939 58.8854 72.6106 58.8538 72.7828 59.0239C72.9332 59.1721 72.9942 59.3541 72.9659 59.5699Z" fill="#3C3C3B"/>
<path d="M84.3235 58.8649L84.3109 58.8615C84.1678 58.8232 84.0208 58.9081 83.9825 59.0511L82.5878 64.2562C82.5495 64.3992 82.6343 64.5462 82.7774 64.5846L82.79 64.588C82.9331 64.6263 83.0801 64.5414 83.1184 64.3984L84.5131 59.1933C84.5514 59.0502 84.4665 58.9032 84.3235 58.8649Z" fill="#3C3C3B"/>
<path d="M90.2699 60.0473C89.6617 59.3214 88.7691 59.2462 87.8927 59.6288C86.8159 60.0975 86.1739 60.928 85.9668 62.1204C85.8578 62.7395 86.0093 63.2518 86.4213 63.6572C87.2715 64.4943 88.6317 64.0725 89.4688 63.4087C89.7391 63.1973 89.8437 63.2605 89.7827 63.5984C89.7435 63.8098 89.6301 63.9668 89.4426 64.0692C87.8372 64.9358 85.1297 64.8802 85.3815 62.3493C85.6235 59.8937 88.2132 58.0691 90.4857 59.3378C90.6026 59.4036 90.6955 59.5056 90.7506 59.6288C90.8988 59.971 90.8628 60.1585 90.6427 60.1912C90.4923 60.2152 90.368 60.1672 90.2699 60.0473Z" fill="#3C3C3B"/>
<path d="M100.194 59.5046C100.639 59.2081 101.163 59.0108 101.767 58.9127C101.891 58.8909 101.971 58.9411 102.005 59.0632L102.035 59.1514C102.04 59.171 102.042 59.1915 102.039 59.2117C102.037 59.2318 102.03 59.2512 102.02 59.2686C102.01 59.286 101.997 59.3012 101.981 59.3131C101.965 59.325 101.946 59.3334 101.927 59.3378C101.463 59.4468 100.984 59.5972 100.492 59.7891C100.219 59.8959 99.9934 60.0823 99.8147 60.3482C99.0855 61.424 98.7748 63.0524 98.4675 64.3668C98.4282 64.539 98.3214 64.6143 98.147 64.5925L98.0097 64.5761C97.9905 64.5735 97.9721 64.5668 97.9557 64.5566C97.9393 64.5464 97.9252 64.5328 97.9144 64.5167C97.9036 64.5007 97.8963 64.4825 97.893 64.4634C97.8897 64.4444 97.8905 64.4248 97.8953 64.4061L99.3242 58.9879C99.3294 58.9662 99.3399 58.9461 99.3548 58.9294C99.3698 58.9127 99.3887 58.8999 99.41 58.8922C99.4313 58.8844 99.4542 58.882 99.4769 58.885C99.4995 58.888 99.5212 58.8964 99.54 58.9095C99.7209 59.0403 99.855 59.2125 99.9422 59.4261C99.9945 59.5547 100.078 59.5809 100.194 59.5046Z" fill="#3C3C3B"/>
<path d="M104.131 59.6713C104.639 59.2658 105.216 59.0086 105.864 58.8996C105.888 58.8959 105.912 58.8972 105.936 58.9034C105.959 58.9096 105.981 58.9207 106 58.9358C106.019 58.9509 106.034 58.9698 106.045 58.9912C106.056 59.0125 106.062 59.0359 106.063 59.0598L106.067 59.171C106.071 59.2538 106.035 59.3083 105.959 59.3345L104.314 59.9263C104.198 59.9677 104.11 60.0419 104.049 60.1487C103.351 61.3999 102.899 62.7885 102.692 64.3145C102.687 64.3545 102.673 64.3931 102.652 64.4278C102.631 64.4625 102.603 64.4927 102.571 64.5165C102.538 64.5403 102.5 64.5572 102.46 64.5664C102.42 64.5755 102.379 64.5765 102.339 64.5695L102.215 64.5499C102.069 64.5237 102.014 64.4387 102.051 64.2948L103.425 59.1089C103.457 58.9824 103.534 58.9476 103.653 59.0042C103.895 59.1198 104.01 59.3203 103.997 59.6059C103.99 59.7258 104.035 59.7476 104.131 59.6713Z" fill="#3C3C3B"/>
<path d="M122.936 63.4283L126.071 59.0369C126.156 58.917 126.271 58.8669 126.415 58.8865L126.549 58.9061C126.677 58.9214 126.704 58.9824 126.627 59.0893L122.779 64.4518C122.728 64.5221 122.658 64.5758 122.577 64.6063C122.496 64.6368 122.408 64.6426 122.324 64.623C122.239 64.6034 122.163 64.5593 122.103 64.4963C122.044 64.4332 122.005 64.354 121.991 64.2687L121.144 59.1873C121.118 59.0391 121.179 58.9497 121.327 58.9192L121.48 58.8898C121.503 58.8851 121.525 58.885 121.548 58.8894C121.57 58.8938 121.591 58.9026 121.61 58.9154C121.629 58.9282 121.645 58.9447 121.658 58.9638C121.67 58.983 121.679 59.0045 121.683 59.0271L122.432 63.3139C122.51 63.7542 122.678 63.7924 122.936 63.4283Z" fill="#3C3C3B"/>
<path d="M131.567 59.5912C132.01 60.085 132.18 60.7875 132.039 61.5442C131.898 62.3008 131.458 63.0496 130.816 63.6259C130.173 64.2021 129.382 64.5586 128.614 64.6169C127.847 64.6752 127.167 64.4306 126.724 63.9368C126.281 63.443 126.111 62.7405 126.252 61.9839C126.392 61.2272 126.832 60.4784 127.475 59.9022C128.117 59.3259 128.909 58.9694 129.676 58.9111C130.444 58.8528 131.124 59.0975 131.567 59.5912ZM127.307 63.661C127.689 64.0322 128.25 64.1876 128.867 64.0932C129.484 63.9987 130.107 63.662 130.598 63.1572C131.089 62.6523 131.408 62.0207 131.485 61.4013C131.562 60.7818 131.391 60.2252 131.009 59.854C130.628 59.4828 130.066 59.3273 129.449 59.4218C128.832 59.5163 128.21 59.853 127.719 60.3578C127.228 60.8626 126.909 61.4943 126.832 62.1137C126.754 62.7332 126.925 63.2897 127.307 63.661Z" fill="#3C3C3B"/>
<path d="M136.162 63.4218C136.611 62.7831 136.454 62.382 135.691 62.2185C134.792 62.0256 133.02 61.9111 133.317 60.5574C133.706 58.7819 136.022 58.6773 137.352 59.2527C137.425 59.2838 137.486 59.3378 137.526 59.4067C137.566 59.4756 137.583 59.5558 137.575 59.6353L137.568 59.7203C137.566 59.7454 137.557 59.7694 137.544 59.7906C137.53 59.8118 137.512 59.8294 137.49 59.8422C137.468 59.8549 137.443 59.8623 137.417 59.8639C137.392 59.8654 137.366 59.8611 137.343 59.8511C136.188 59.3541 134.792 59.0206 134.001 60.2533C133.945 60.3411 133.909 60.4403 133.896 60.5435C133.884 60.6468 133.894 60.7515 133.927 60.85C133.96 60.9485 134.014 61.0383 134.087 61.1127C134.159 61.1871 134.247 61.2443 134.344 61.28C134.872 61.4741 135.408 61.6179 135.953 61.7117C137.614 61.9961 136.924 63.8142 135.881 64.2785C134.806 64.7581 133.656 64.7177 132.431 64.1575C132.395 64.1408 132.363 64.117 132.336 64.0874C132.31 64.0578 132.29 64.0231 132.277 63.9854C132.265 63.9477 132.26 63.9079 132.263 63.8683C132.267 63.8287 132.278 63.7903 132.297 63.7553L132.366 63.6245C132.376 63.6054 132.39 63.5885 132.407 63.5749C132.424 63.5612 132.443 63.5511 132.464 63.545C132.485 63.5389 132.507 63.537 132.529 63.5394C132.551 63.5419 132.572 63.5486 132.591 63.5591C133.119 63.8556 133.658 64.0387 134.21 64.1085C134.953 64.2 135.572 64.0082 136.067 63.533C136.102 63.4981 136.134 63.461 136.162 63.4218Z" fill="#3C3C3B"/>
<path d="M96.5528 59.5965C96.7715 59.841 96.9252 60.1394 97.0052 60.4744C97.0852 60.8094 97.09 61.1746 97.0191 61.5491C96.9483 61.9236 96.8033 62.3001 96.5924 62.6571C96.3816 63.014 96.1089 63.3445 95.7901 63.6295C95.1462 64.2052 94.3532 64.5612 93.5857 64.619C92.8181 64.6769 92.1388 64.4319 91.6972 63.938C91.4785 63.6934 91.3248 63.3951 91.2448 63.0601C91.1648 62.725 91.16 62.3598 91.2309 61.9853C91.3017 61.6108 91.4467 61.2343 91.6576 60.8774C91.8684 60.5204 92.1411 60.19 92.4599 59.9049C93.1038 59.3292 93.8967 58.9733 94.6643 58.9154C95.4319 58.8576 96.1112 59.1026 96.5528 59.5965ZM92.2931 63.6741C92.678 64.0433 93.2398 64.1964 93.855 64.0998C94.4701 64.0032 95.0882 63.6648 95.5731 63.1591C96.0581 62.6534 96.3703 62.0217 96.4411 61.403C96.5118 60.7844 96.3353 60.2295 95.9504 59.8603C95.5654 59.4912 95.0036 59.3381 94.3885 59.4346C93.7733 59.5312 93.1553 59.8696 92.6703 60.3754C92.1853 60.8811 91.8731 61.5128 91.8024 62.1314C91.7316 62.7501 91.9081 63.305 92.2931 63.6741Z" fill="#3C3C3B"/>
<path d="M111.449 59.5881C111.892 60.0792 112.061 60.7797 111.919 61.5357C111.778 62.2916 111.338 63.041 110.696 63.6189C110.379 63.9051 110.021 64.1406 109.643 64.3119C109.266 64.4833 108.876 64.5871 108.497 64.6175C108.117 64.6479 107.755 64.6043 107.431 64.4892C107.107 64.374 106.828 64.1896 106.609 63.9465C106.167 63.4554 105.998 62.7548 106.139 61.9989C106.28 61.243 106.72 60.4936 107.362 59.9156C107.68 59.6295 108.038 59.394 108.415 59.2226C108.792 59.0513 109.182 58.9475 109.562 58.917C109.941 58.8866 110.303 58.9302 110.627 59.0454C110.951 59.1605 111.23 59.3449 111.449 59.5881ZM107.195 63.6733C107.579 64.0418 108.141 64.1941 108.756 64.0967C109.371 63.9992 109.989 63.66 110.475 63.1536C110.715 62.9029 110.916 62.6187 111.065 62.3172C111.215 62.0157 111.31 61.7029 111.345 61.3966C111.381 61.0902 111.356 60.7964 111.272 60.5319C111.188 60.2673 111.047 60.0372 110.857 59.8548C110.472 59.4862 109.911 59.3339 109.296 59.4314C108.681 59.5288 108.062 59.868 107.577 60.3744C107.336 60.6251 107.136 60.9093 106.986 61.2108C106.837 61.5123 106.742 61.8251 106.707 62.1315C106.671 62.4378 106.696 62.7316 106.78 62.9962C106.864 63.2607 107.005 63.4908 107.195 63.6733Z" fill="#3C3C3B"/>
<path d="M115.837 62.3101C115.259 62.1531 114.651 61.9962 114.012 61.8392C112.616 61.5024 113.136 59.8773 114.012 59.3836C115.065 58.7928 116.204 58.7776 117.429 59.3378C117.454 59.349 117.475 59.3656 117.492 59.3862C117.51 59.4068 117.522 59.4311 117.528 59.4571C117.535 59.4831 117.536 59.5103 117.53 59.5366C117.525 59.5629 117.514 59.5877 117.498 59.6092L117.426 59.7073C117.321 59.849 117.191 59.8784 117.034 59.7956C116.043 59.279 114.029 59.1253 113.787 60.5378C113.756 60.7144 113.793 60.8962 113.892 61.0467C113.99 61.1971 114.142 61.305 114.316 61.3488L116.17 61.8098C116.365 61.8575 116.536 61.9714 116.656 62.1319C116.775 62.2925 116.835 62.4896 116.824 62.6894C116.713 64.8998 113.708 64.8704 112.263 64.1183C112.205 64.088 112.161 64.0384 112.137 63.9784C112.113 63.9184 112.111 63.852 112.132 63.7913C112.171 63.6736 112.275 63.6017 112.443 63.5755C112.515 63.565 112.588 63.5788 112.652 63.6148C113.799 64.2774 114.843 64.3069 115.785 63.703C116.207 63.4327 116.336 63.072 116.17 62.6207C116.112 62.4594 116 62.3559 115.837 62.3101Z" fill="#3C3C3B"/>
<path d="M119.82 59.0057L119.491 58.9177C119.437 58.9032 119.381 58.9353 119.367 58.9894L117.93 64.3524C117.915 64.4065 117.948 64.4621 118.002 64.4765L118.33 64.5646C118.384 64.579 118.44 64.547 118.454 64.4929L119.891 59.1299C119.906 59.0758 119.874 59.0202 119.82 59.0057Z" fill="#3C3C3B"/>
<path d="M140.259 91.1664C143.495 91.1664 146.119 88.543 146.119 85.3069C146.119 82.0707 143.495 79.4473 140.259 79.4473C137.023 79.4473 134.4 82.0707 134.4 85.3069C134.4 88.543 137.023 91.1664 140.259 91.1664Z" fill="#F9B234"/>
</g>
<defs>
<clipPath id="clip0_2056_1107">
<rect width="219" height="91" fill="white"/>
</clipPath>
</defs>
</svg>
