<svg width="219" height="49" viewBox="0 0 219 49" fill="none" xmlns="http://www.w3.org/2000/svg">
<path d="M48.2041 48.263C48.0733 48.263 47.9715 48.1757 47.9133 48.0449L47.5354 46.7947H45.5002L45.1223 48.0449C45.0786 48.1757 44.9478 48.263 44.817 48.263C44.6425 48.263 44.4535 48.074 44.5262 47.8705L46.2125 42.2737C46.2561 42.1429 46.3724 42.0557 46.5178 42.0557C46.6486 42.0557 46.7649 42.1429 46.8085 42.2737L48.5094 47.8705C48.5384 48.0449 48.4076 48.263 48.2041 48.263ZM47.3464 46.1842L46.5178 43.4076L45.6747 46.1696H47.3464V46.1842Z" fill="white"/>
<path d="M60.4013 48.2628C60.285 48.2628 60.1542 48.1901 60.096 48.0593L59.1947 45.2972C59.1947 45.2972 59.1366 45.2972 57.9445 45.2972V47.972C57.9445 48.1319 57.8137 48.2773 57.6393 48.2773C57.4648 48.2773 57.334 48.1319 57.334 47.972V42.4189C57.334 42.259 57.4648 42.1282 57.6393 42.1282H59.1075C59.9797 42.1282 60.692 42.8405 60.692 43.7127C60.692 44.3378 60.3141 44.8757 59.7907 45.1373L60.6775 47.8703C60.7211 48.0302 60.6048 48.2628 60.4013 48.2628ZM59.093 44.6721C59.6454 44.6721 60.0815 44.236 60.0815 43.6982C60.0815 43.1458 59.6454 42.7097 59.093 42.7097H57.93V44.6721H59.093Z" fill="white"/>
<path d="M72.7864 48.4082C72.6992 48.4082 72.641 48.3791 72.5829 48.321L72.234 47.9575C71.9578 48.1465 71.638 48.2628 71.2746 48.2628C70.3297 48.2628 69.5737 47.5069 69.5737 46.562V43.7709C69.5737 42.826 70.3297 42.0701 71.2746 42.0701C72.2049 42.0701 72.9754 42.826 72.9754 43.7709V46.562C72.9754 46.9254 72.8591 47.2598 72.6556 47.536L73.019 47.9139C73.1934 48.1029 73.0771 48.4082 72.7864 48.4082ZM71.7834 47.5069L71.3182 47.0417C71.1583 46.8673 71.2746 46.5184 71.5508 46.5184C71.6234 46.5184 71.7107 46.5475 71.7688 46.6056L72.234 47.0708C72.3212 46.9109 72.3648 46.7219 72.3648 46.5329V43.7418C72.3648 43.1458 71.8706 42.6515 71.2746 42.6515C70.664 42.6515 70.1697 43.1458 70.1697 43.7418V46.5329C70.1697 47.1289 70.664 47.6232 71.2746 47.6232C71.449 47.6377 71.638 47.5941 71.7834 47.5069Z" fill="white"/>
<path d="M82.3076 46.5476V42.3609C82.3076 42.201 82.4385 42.0557 82.6129 42.0557C82.7728 42.0557 82.9036 42.201 82.9036 42.3609V46.5476C82.9036 47.1436 83.4124 47.6379 84.0084 47.6379C84.619 47.6379 85.1133 47.1581 85.1133 46.5476V42.3609C85.1133 42.201 85.2441 42.0557 85.4185 42.0557C85.5784 42.0557 85.7238 42.201 85.7238 42.3609V46.5476C85.7238 47.478 84.9533 48.2484 84.023 48.2484C83.0635 48.2629 82.3076 47.478 82.3076 46.5476Z" fill="white"/>
<path d="M109.289 42.1138C109.463 42.1138 109.594 42.2446 109.594 42.4045C109.594 42.579 109.463 42.7098 109.289 42.7098H108.126V47.9431C108.126 48.1175 107.995 48.2484 107.82 48.2484C107.66 48.2484 107.515 48.103 107.515 47.9431V42.7098H106.352C106.178 42.7098 106.032 42.579 106.032 42.4045C106.032 42.2446 106.178 42.1138 106.352 42.1138H109.289Z" fill="white"/>
<path d="M121.412 47.8995C121.412 48.0739 121.267 48.2048 121.107 48.2048H118.636C118.476 48.2048 118.331 48.0594 118.331 47.8995V42.4045C118.331 42.2446 118.461 42.1138 118.636 42.1138H121.078C121.252 42.1138 121.383 42.2446 121.383 42.4045C121.383 42.579 121.252 42.7098 121.078 42.7098H118.941V44.6141H120.831C121.005 44.6141 121.136 44.745 121.136 44.9339C121.136 45.0938 121.005 45.2247 120.831 45.2247H118.941V47.5797H121.107C121.267 47.5797 121.412 47.725 121.412 47.8995Z" fill="white"/>
<path d="M132.897 42.1138C133.071 42.1138 133.202 42.2446 133.202 42.4045C133.202 42.579 133.071 42.7098 132.897 42.7098H131.734V47.9431C131.734 48.1175 131.589 48.2484 131.429 48.2484C131.269 48.2484 131.123 48.103 131.123 47.9431V42.7098H129.961C129.786 42.7098 129.655 42.579 129.655 42.4045C129.655 42.2446 129.786 42.1138 129.961 42.1138H132.897Z" fill="white"/>
<path d="M141.939 46.5476V42.3609C141.939 42.201 142.07 42.0557 142.244 42.0557C142.404 42.0557 142.55 42.201 142.55 42.3609V46.5476C142.55 47.1436 143.044 47.6379 143.64 47.6379C144.25 47.6379 144.745 47.1581 144.745 46.5476V42.3609C144.745 42.201 144.875 42.0557 145.05 42.0557C145.21 42.0557 145.355 42.201 145.355 42.3609V46.5476C145.355 47.478 144.599 48.2484 143.654 48.2484C142.709 48.2629 141.939 47.478 141.939 46.5476Z" fill="white"/>
<path d="M157.741 48.2628C157.61 48.2628 157.493 48.1901 157.435 48.0593L156.534 45.2972C156.534 45.2972 156.461 45.2972 155.269 45.2972V47.972C155.269 48.1319 155.138 48.2773 154.964 48.2773C154.804 48.2773 154.659 48.1319 154.659 47.972V42.4189C154.659 42.259 154.804 42.1282 154.964 42.1282H156.432C157.319 42.1282 158.017 42.8405 158.017 43.7127C158.017 44.3378 157.653 44.8757 157.115 45.1373L158.002 47.8703C158.06 48.0302 157.959 48.2628 157.741 48.2628ZM156.447 44.6721C156.999 44.6721 157.435 44.236 157.435 43.6982C157.435 43.1458 156.999 42.7097 156.447 42.7097H155.284V44.6721H156.447Z" fill="white"/>
<path d="M170.213 48.263C170.082 48.263 169.98 48.1757 169.922 48.0449L169.544 46.7947H167.509L167.131 48.0449C167.088 48.1757 166.971 48.263 166.84 48.263C166.666 48.263 166.477 48.074 166.55 47.8705L168.236 42.2737C168.28 42.1429 168.41 42.0557 168.541 42.0557C168.672 42.0557 168.788 42.1429 168.832 42.2737L170.518 47.8705C170.562 48.0449 170.431 48.263 170.213 48.263ZM169.37 46.1842L168.541 43.4221L167.713 46.1842H169.37Z" fill="white"/>
<path d="M96.1876 48.2061C96.011 48.2061 95.8745 48.0696 95.8745 47.893V42.4505C95.8745 42.2819 96.011 42.1374 96.1876 42.1374C96.3562 42.1374 96.4926 42.2819 96.4926 42.4505V47.893C96.4926 48.0696 96.3481 48.2061 96.1876 48.2061Z" fill="white"/>
<path d="M109.289 0.0146484C100.727 0.0146484 93.7637 6.97786 93.7637 15.5401C93.7637 24.1024 100.727 31.0656 109.289 31.0656C117.851 31.0656 124.815 24.1024 124.815 15.5401C124.815 6.97786 117.851 0.0146484 109.289 0.0146484ZM109.289 27.9256C102.457 27.9256 96.9037 22.3725 96.9037 15.5401C96.9037 8.70776 102.457 3.15463 109.289 3.15463C116.122 3.15463 121.675 8.70776 121.675 15.5401C121.675 22.3725 116.122 27.9256 109.289 27.9256Z" fill="white"/>
<path d="M218.956 29.1904L208.852 1.10492C208.634 0.465295 208.038 0.0146484 207.384 0.0146484C206.701 0.0146484 206.105 0.450758 205.872 1.09038L195.784 29.234C195.638 29.6701 195.711 30.1498 196.002 30.5423C196.307 30.9493 196.787 31.211 197.266 31.211C197.906 31.211 198.517 30.7458 198.735 30.0916L207.384 5.24796L212.69 20.3228H205.247C204.448 20.3228 203.794 20.977 203.794 21.7765C203.794 22.576 204.448 23.2157 205.247 23.2157H213.577L216.034 30.0771C216.252 30.7749 216.819 31.211 217.458 31.211C217.923 31.211 218.36 31.0075 218.65 30.6295C218.956 30.2225 219.072 29.6991 218.956 29.1904Z" fill="white"/>
<path d="M167.48 29.5246V8.02441L160.444 17.4008C160.183 17.9532 159.674 18.2584 159.063 18.2584C158.496 18.2584 157.988 17.9677 157.682 17.4008L150.647 8.02441V29.5246C150.647 30.3823 149.963 31.0655 149.106 31.0655C148.292 31.0655 147.594 30.3823 147.594 29.5246V1.54092C147.637 0.683238 148.277 0 149.106 0C149.658 0 150.225 0.348887 150.487 0.857681L159.063 13.3159L167.64 0.857681C167.902 0.348887 168.454 0 169.021 0C169.923 0 170.533 0.81407 170.533 1.54092V29.5246C170.533 30.3823 169.85 31.0655 169.021 31.0655C168.164 31.0655 167.48 30.3823 167.48 29.5246Z" fill="white"/>
<path d="M46.1691 31.0656C44.6863 31.0656 43.7995 29.7573 44.4537 28.7979L61.2003 3.15463H47.114C46.0091 3.15463 45.1369 2.45686 45.1369 1.58464C45.1369 0.712423 46.0237 0.0146484 47.114 0.0146484H64.3984C65.9393 0.0146484 66.7098 1.32298 66.1574 2.32603L49.4253 27.9256H64.1804C65.227 27.9256 66.0992 28.6234 66.0992 29.4956C66.0992 30.3678 65.2125 31.0656 64.1804 31.0656H46.1691Z" fill="white"/>
<path d="M0.334138 6.54164C0.305064 6.77423 0.305064 7.0359 0.290527 7.28302C0.290527 7.3121 0.290527 7.34117 0.290527 7.35571C0.290527 7.55923 0.319601 7.74821 0.334138 7.92265C0.508582 8.63496 1.20636 9.14376 2.03496 9.14376C2.9944 9.14376 3.7794 8.46052 3.7794 7.60284C3.7794 7.29756 3.79394 6.97775 3.85209 6.67247C3.86662 6.59979 3.86662 6.54164 3.88116 6.48349C3.88116 6.48349 3.88116 6.46895 3.88116 6.45442C4.2882 4.65183 6.0181 3.05276 9.39067 3.05276C13.1848 3.05276 15.1328 5.36414 15.1328 7.64645C15.1328 8.50413 15.9178 9.18737 16.8772 9.18737C17.8512 9.18737 18.6362 8.50413 18.6362 7.64645C18.6217 3.25628 14.4932 0 9.39067 0C4.82606 0 0.828395 2.41314 0.348675 6.48349C0.334138 6.49803 0.334138 6.51256 0.334138 6.54164Z" fill="white"/>
<path d="M13.3304 15.1476C9.53625 13.2142 7.5883 12.1821 6.86145 11.7169C6.70154 11.6151 6.54164 11.5134 6.4108 11.4116C6.51256 11.4843 6.61432 11.557 6.73062 11.6297C6.35266 11.4262 6.00377 11.2372 5.7421 11.0773C5.01526 10.6266 4.05582 10.8737 3.61971 11.5715C3.41619 11.9204 3.3435 12.3274 3.44526 12.7345C3.53248 13.1124 3.76508 13.4613 4.08489 13.6794C4.05582 13.6503 4.04128 13.6358 4.0122 13.6212C4.37563 13.8829 4.75359 14.13 5.14609 14.3772C6.17821 14.9732 7.18126 15.4965 11.615 17.7643C15.3074 19.7704 15.5982 21.5003 15.5982 23.5209C15.5982 26.2248 13.2141 28.0274 9.46357 28.0274C5.52405 28.0274 3.43073 25.6724 3.43073 23.4337C3.43073 22.576 2.64573 21.8928 1.68629 21.8928C0.784996 21.8782 0 22.5615 0 23.4337C0 27.2133 3.54702 31.0656 9.47811 31.0656C14.3916 31.0656 19.1161 28.3181 19.1161 23.5209C19.1161 19.8285 17.0664 17.0374 13.3304 15.1476Z" fill="white"/>
</svg>
